<?xml version="1.0" standalone="no"?>
<!DOCTYPE svg PUBLIC "-//W3C//DTD SVG 20010904//EN"
 "http://www.w3.org/TR/2001/REC-SVG-20010904/DTD/svg10.dtd">
<svg version="1.0" xmlns="http://www.w3.org/2000/svg"
 width="700.000000pt" height="700.000000pt" viewBox="0 0 700.000000 700.000000"
 preserveAspectRatio="xMidYMid meet">
<metadata>
Created by potrace 1.11, written by Peter Selinger 2001-2013
</metadata>
<g transform="translate(0.000000,700.000000) scale(0.100000,-0.100000)"
fill="#000000" stroke="none">
<path d="M3278 6675 c-1 -1 -39 -5 -83 -9 -44 -3 -100 -8 -125 -12 -65 -8
-325 -61 -390 -80 -30 -8 -59 -16 -65 -18 -506 -138 -917 -420 -1255 -861
-126 -165 -280 -408 -439 -695 -57 -102 -82 -167 -85 -223 -4 -52 -2 -61 63
-237 50 -137 47 -151 -64 -303 -69 -96 -103 -273 -81 -426 7 -57 26 -99 61
-139 34 -40 27 -152 -19 -287 -67 -196 -63 -225 72 -531 62 -139 63 -195 4
-260 -47 -52 -84 -106 -98 -146 -18 -48 -23 -198 -11 -293 17 -128 19 -152 19
-213 0 -114 -41 -138 -144 -84 -45 24 -191 123 -208 142 -16 17 -134 92 -187
119 -116 59 -185 45 -218 -46 -22 -62 -29 -288 -10 -388 23 -130 88 -223 229
-329 142 -107 329 -192 466 -212 89 -13 239 -8 315 11 150 37 274 112 400 241
103 104 150 207 169 364 9 72 15 131 21 195 20 206 49 335 75 335 18 0 204
-116 480 -299 146 -97 270 -178 275 -181 6 -3 69 -44 140 -91 172 -113 327
-207 391 -235 51 -22 58 -32 71 -97 5 -26 -25 -85 -50 -98 -11 -6 -54 -11 -96
-11 -214 3 -489 1 -511 -2 -14 -2 -29 -4 -34 -5 -5 0 20 -23 55 -49 202 -152
456 -258 714 -299 64 -10 356 -10 415 1 135 23 331 87 422 139 24 14 58 33 77
43 64 35 64 38 -19 56 -142 30 -299 106 -335 162 -36 54 9 79 163 91 46 3 89
8 95 11 7 2 26 6 42 8 51 6 224 53 350 94 444 146 777 303 940 442 11 10 37
23 58 30 34 11 40 10 53 -7 14 -18 39 -95 48 -146 24 -139 97 -270 231 -414
179 -193 354 -280 573 -287 340 -10 620 186 721 505 30 96 33 114 36 244 5
229 -27 380 -89 420 -66 43 -161 -17 -339 -215 -78 -87 -151 -147 -212 -176
-42 -20 -57 -22 -86 -14 -79 22 -151 115 -162 208 -6 60 7 112 54 206 85 174
85 354 -2 481 -22 32 -39 70 -39 85 0 38 24 92 78 175 94 143 127 261 139 495
11 231 4 615 -12 702 -3 13 -9 47 -15 76 -9 52 -46 132 -61 132 -4 0 -17 16
-29 36 -28 45 -24 84 19 177 60 130 65 218 18 320 -35 78 -93 149 -239 298
-67 69 -162 168 -210 220 -97 105 -87 94 -243 274 -62 72 -139 155 -171 186
-78 74 -226 187 -334 254 -79 48 -320 175 -334 175 -3 0 -29 11 -58 24 -77 35
-277 103 -403 136 -105 28 -122 32 -190 45 -16 3 -52 10 -80 15 -27 5 -70 12
-95 15 -25 3 -58 7 -75 10 -90 14 -149 17 -337 20 -113 2 -208 2 -210 0z m509
-1145 c64 -23 144 -162 278 -485 185 -444 253 -527 416 -501 99 16 174 78 248
204 56 96 68 103 77 40 6 -46 33 -116 61 -160 12 -21 23 -40 23 -43 0 -3 4
-11 10 -18 5 -7 36 -46 68 -87 90 -114 148 -160 192 -153 40 6 119 65 223 168
53 52 97 92 99 87 13 -25 -3 -935 -17 -1057 -2 -16 -7 -57 -11 -90 -10 -87
-11 -94 -24 -165 -43 -237 -131 -450 -254 -614 -144 -190 -413 -394 -700 -530
-121 -57 -319 -110 -496 -132 -30 -3 -64 -8 -74 -10 -55 -10 -232 -18 -396
-18 -314 1 -459 29 -653 125 -79 39 -264 154 -287 179 -3 3 -34 30 -70 59
-124 105 -255 249 -331 366 -189 290 -320 665 -366 1045 -10 83 -10 454 0 544
28 258 125 538 249 721 45 65 167 225 173 225 2 0 2 -10 0 -22 -3 -12 -7 -58
-10 -102 -3 -45 -8 -103 -11 -131 -8 -67 -8 -229 0 -285 37 -256 170 -374 362
-321 51 14 122 64 133 94 4 12 18 54 31 92 13 39 31 88 41 110 9 22 34 78 54
125 21 47 79 169 130 272 128 258 173 319 194 265 5 -12 21 -83 35 -157 67
-362 183 -536 398 -601 57 -18 73 -19 103 -9 46 15 107 91 131 162 24 69 24
267 1 393 -25 137 -27 143 -37 170 -5 14 -8 25 -6 25 2 0 -5 28 -15 63 -27 88
-33 135 -19 152 15 18 10 17 47 5z"/>
<path d="M4049 4249 c-90 -12 -140 -50 -177 -134 -27 -58 -34 -91 -37 -170 -8
-179 62 -333 178 -389 91 -44 121 -44 210 3 98 50 131 87 158 174 18 58 20 85
16 180 -8 176 -39 262 -111 306 -49 31 -144 42 -237 30z"/>
<path d="M3231 4230 c-70 -32 -116 -94 -146 -199 -32 -109 -36 -253 -9 -337
32 -104 123 -177 219 -177 63 0 80 4 130 30 175 93 231 323 129 525 -74 146
-206 211 -323 158z"/>
<path d="M2394 3351 c-47 -21 -111 -92 -123 -136 -22 -82 39 -267 144 -430 64
-101 199 -226 305 -284 48 -26 201 -101 206 -101 3 0 20 -7 37 -15 98 -45 358
-115 487 -130 116 -13 139 -14 265 -15 143 0 195 4 300 21 388 63 691 228 842
461 23 36 43 69 43 72 0 4 8 25 19 49 75 170 77 335 4 414 -36 38 -70 52 -122
48 -82 -6 -168 -66 -264 -183 -84 -103 -111 -130 -187 -186 -271 -200 -676
-269 -1020 -174 -112 30 -212 85 -305 166 -22 19 -105 99 -185 176 -245 239
-342 293 -446 247z"/>
</g>
</svg>
