<?xml version="1.0" encoding="UTF-8" standalone="no"?>
<!-- Created with Inkscape (http://www.inkscape.org/) -->

<svg
   xmlns:dc="http://purl.org/dc/elements/1.1/"
   xmlns:cc="http://creativecommons.org/ns#"
   xmlns:rdf="http://www.w3.org/1999/02/22-rdf-syntax-ns#"
   xmlns:svg="http://www.w3.org/2000/svg"
   xmlns="http://www.w3.org/2000/svg"
   xmlns:sodipodi="http://sodipodi.sourceforge.net/DTD/sodipodi-0.dtd"
   xmlns:inkscape="http://www.inkscape.org/namespaces/inkscape"
   width="100mm"
   height="100mm"
   viewBox="0 0 100 100"
   version="1.1"
   id="svg912"
   inkscape:version="0.92.3 (2405546, 2018-03-11)"
   sodipodi:docname="big_ico.svg">
  <defs
     id="defs906" />
  <sodipodi:namedview
     id="base"
     pagecolor="#ffffff"
     bordercolor="#666666"
     borderopacity="1.0"
     inkscape:pageopacity="0.0"
     inkscape:pageshadow="2"
     inkscape:zoom="1.18125"
     inkscape:cx="198.51852"
     inkscape:cy="289.10053"
     inkscape:document-units="mm"
     inkscape:current-layer="layer1"
     showgrid="false"
     inkscape:window-width="1920"
     inkscape:window-height="1025"
     inkscape:window-x="0"
     inkscape:window-y="27"
     inkscape:window-maximized="1" />
  <metadata
     id="metadata909">
    <rdf:RDF>
      <cc:Work
         rdf:about="">
        <dc:format>image/svg+xml</dc:format>
        <dc:type
           rdf:resource="http://purl.org/dc/dcmitype/StillImage" />
        <dc:title></dc:title>
      </cc:Work>
    </rdf:RDF>
  </metadata>
  <g
     inkscape:label="Layer 1"
     inkscape:groupmode="layer"
     id="layer1"
     transform="translate(0,-197)">
    <path
       d="m 18.588036,199.06205 c -3.383862,-0.0293 -5.392584,0.42582 -8.138495,1.73017 -2.7830571,1.32203 -4.9450011,3.3372 -6.2063811,5.78528 -0.811561,1.57463 -0.992946,2.45153 -1.122349,5.40543 -0.180209,4.1195 0.268434,6.55177 1.808326,9.81211 1.877995,3.97606 6.1827301,7.53306 9.7645461,8.0669 1.517691,0.22597 2.236882,0.90463 1.984169,1.87129 -0.122629,0.46807 -0.494949,0.65225 -1.296085,0.64255 -0.618312,-0.008 -1.445066,0.008 -1.836477,0.0378 -0.77859,0.0558 -5.1175041,4.05191 -6.7382881,6.20434 l -1.015967,1.34813 1.12024,1.15702 c 0.616757,0.63635 1.122247,1.35252 1.122247,1.59123 0,0.23857 -0.80606,2.04047 -1.790973,4.00304 -0.984873,1.96257 -2.117983,4.39922 -2.518133,5.41623 -0.425176,1.07973 -1.235169,2.26851 -1.945093,2.85466 -1.42732704,1.17843 -1.52206304,1.97813 -0.390676,3.29325 0.680872,0.7915 1.138789,0.9662 2.620194,0.99855 l 1.795344,0.0378 -0.17603,5.75275 c -0.164679,5.39438 -0.128548,5.82655 0.573078,6.96182 0.41925,0.67811 1.548284,1.64843 2.568007,2.20346 l 1.8213081,0.98988 -0.225578,2.89374 c -0.12352,1.59161 -0.317163,4.09455 -0.4298311,5.56175 -0.112594,1.46715 -0.233559,2.70259 -0.271377,2.74604 -0.03779,0.0433 -0.645666,-0.39613 -1.350203,-0.97688 -0.736866,-0.60735 -2.208219,-1.29377 -3.462529,-1.61513 -2.049856,-0.52512 -2.249482,-0.51965 -3.295296,0.0912 -1.43105604,0.83589 -1.85987204,2.11566 -1.34814704,4.01603 0.435037,1.61577 2.41491404,4.03455 3.95741504,4.83227 2.396532,1.23923 7.2390861,0.1116 8.2818181,-1.9276 0.303306,-0.59378 0.565314,-2.91199 0.707674,-6.27593 0.124305,-2.93435 0.319272,-6.06679 0.43424,-6.95976 l 0.208363,-1.62375 2.917641,-0.42118 c 1.603686,-0.23187 3.096958,-0.42112 3.319205,-0.42112 0.524272,0 0.73157,1.8231 0.950863,8.35778 0.211291,6.29945 0.763796,8.41293 2.474686,9.45619 2.053968,1.25244 5.264684,0.72981 7.255024,-1.18093 1.51358,-1.45343 2.570322,-3.46613 2.570322,-4.89745 0,-1.37039 -1.371413,-2.82265 -2.739738,-2.90028 -1.83185,-0.10375 -2.382138,0.0694 -4.185321,1.31113 -0.986649,0.67951 -1.872725,1.2352 -1.969003,1.2352 -0.09577,0 -0.184835,-0.44113 -0.197416,-0.97902 -0.01294,-0.53797 -0.152076,-3.14749 -0.310454,-5.79839 l -0.28859,-4.81929 2.168628,-0.60349 c 1.423472,-0.39573 2.34576,-0.87877 2.680997,-1.40459 0.525722,-0.82499 1.390308,-10.99353 1.046343,-12.30865 -0.0698,-0.2655 -0.04757,-0.4362 0.134425,-0.56222 0.313808,0.28355 0.744692,0.46938 1.304698,0.4906 0.509063,0.0212 1.970803,0.50296 3.245422,1.07673 1.274735,0.57368 3.103127,1.17858 4.066033,1.34595 0.149552,0.0252 0.298679,0.0643 0.447209,0.10205 0.280196,1.47078 1.002109,3.0179 2.520319,3.62103 0.85575,0.16336 1.28378,0.12942 0.95734,3.77077 -0.23526,3.13809 -0.59273,3.96501 -2.20128,5.08844 -0.636214,0.44435 -1.279617,0.97592 -1.428354,1.18097 -0.715039,0.98621 1.052884,3.90047 3.154154,5.19913 0.99132,0.61261 1.20695,0.96166 1.20695,1.96025 0,1.1839 -0.0378,1.21568 -1.43929,1.21568 -2.794878,0 -4.962606,1.89524 -4.962606,4.33945 0,1.82388 0.510066,2.72137 1.893035,3.32358 2.221841,0.96548 5.020071,0.38732 6.471181,-1.33722 0.89537,-1.06412 0.93775,-1.28954 0.8228,-4.34601 l -0.12392,-3.22369 1.68904,-0.10842 c 1.5578,-0.0999 1.69161,-0.0435 1.69328,0.71206 0.0129,3.5507 2.80054,6.63108 6.11087,6.74047 2.2788,0.0751 2.81918,-0.0596 3.68401,-0.92481 1.57078,-1.57065 0.70159,-5.07085 -1.46319,-5.89376 -1.21505,-0.46202 -3.22845,-0.43979 -4.13544,0.0454 -0.5541,0.29658 -0.80208,0.28273 -1.01169,-0.0562 -0.44315,-0.71695 -0.0832,-1.17596 1.63248,-2.08622 2.25025,-1.19376 3.7164,-2.95582 3.7164,-4.46541 0.22559,-1.15873 -0.43046,-1.76836 -1.33066,-2.14486 -2.18226,-1.13926 -2.53845,-3.15236 -3.29106,-5.63551 -0.91486,-3.01843 0.21298,-3.47051 0.93998,-3.44519 1.64624,-1.18004 2.82368,-0.68284 2.88731,-1.87555 0.0378,-0.0948 0.0702,-0.71472 0.0911,-1.43709 1.69688,-0.0861 4.2627,-0.65782 5.45326,-1.25257 0.47279,-0.23607 1.31935,-0.29491 1.8821,-0.12603 0.72302,0.21679 1.36087,0.042 1.83442,-0.34949 1.0112,0.6159 2.24357,0.52417 3.30186,-0.30833 1.15992,-0.91253 1.23049,-2.35078 0.18021,-3.68608 -0.7509,-0.95485 -0.75124,-0.98279 -0.12558,-3.33875 0.97909,-3.68774 1.95667,-6.10881 2.46595,-6.10881 0.25542,0 0.675,0.25332 0.93343,0.56444 0.39069,0.47078 0.3327,1.73749 -0.34067,7.55888 -0.89332,7.71972 -1.42579,10.55842 -2.79399,14.85686 -0.5046,1.58646 -0.81493,3.15377 -0.68811,3.48413 0.12687,0.33058 1.13515,1.00042 2.24035,1.48928 l 2.00808,0.89001 -0.22598,2.16877 c -0.12482,1.19294 -0.22936,3.30595 -0.23233,4.6955 -0.009,3.25338 -0.14912,3.46651 -1.97762,2.97844 -1.99792,-0.53327 -3.19747,-0.1587 -3.64917,1.13748 -0.64898,1.86141 0.21719,3.80227 2.25334,5.04719 h 0.003 c 2.01926,1.23454 5.56379,0.56893 6.76862,-1.26995 0.53048,-0.80954 0.54838,-1.17465 0.15838,-3.14117 -0.31885,-1.60819 -0.35456,-3.35943 -0.12815,-6.315 l 0.31464,-4.08995 2.84386,0.11712 c 1.56513,0.0656 2.89039,0.16421 2.94373,0.21718 0.0533,0.053 0.18948,1.83944 0.30164,3.97053 0.24154,4.5797 0.97139,7.83218 2.00796,8.94598 1.60652,1.72633 5.45825,1.8221 7.40695,0.18225 1.46306,-1.23257 1.44971,-3.18373 -0.0378,-4.66942 -1.30918,-1.3092 -2.21758,-1.48093 -4.16371,-0.79236 -0.82448,0.29153 -1.56938,0.45755 -1.65422,0.36924 -0.0849,-0.0885 -0.27053,-2.19138 -0.4104,-4.67377 l -0.25417,-4.51528 2.07531,-1.35459 c 1.14138,-0.74523 2.20976,-1.44994 2.37495,-1.56731 0.16506,-0.11711 0.0378,-1.22186 -0.27978,-2.45309 -1.10003,-4.24535 -2.33111,-12.23577 -2.46388,-15.98416 -0.0732,-2.06708 -0.24827,-4.51607 -0.3907,-5.44234 -0.23944,-1.55921 -0.19709,-1.70728 0.58625,-2.00153 0.56424,-0.21216 0.92236,-0.18309 1.07453,0.0849 0.12517,0.22054 0.57644,2.43034 1.0029,4.91043 0.71246,4.14278 0.73002,4.57826 0.21509,5.36417 -1.0231,1.56139 0.60618,4.17453 2.60283,4.17453 1.25238,0 1.78017,-0.39865 2.19909,-1.6672 0.35876,-1.08764 0.31968,-1.37499 -0.29741,-2.20988 -0.41295,-0.55875 -0.81105,-1.84419 -0.95088,-3.07614 -0.284,-2.50053 -1.03246,-5.56302 -1.82569,-7.4612 -0.32976,-0.78803 -0.4836,-1.79535 -0.36464,-2.3901 0.25837,-1.29223 -0.38815,-2.56801 -2.90671,-5.72447 -1.9852,-2.4882 -3.49222,-3.45856 -5.46393,-3.51459 -0.80593,-0.0212 -1.01811,-0.19158 -1.01811,-0.81625 0,-0.70331 0.23902,-0.81756 2.20334,-1.03982 1.86037,-0.21046 3.21007,-0.64111 6.95539,-2.22083 0.29112,-0.12263 0.44502,0.13726 0.44502,0.75111 0,3.59994 3.50483,6.08489 6.54728,4.64125 1.66926,-0.79206 2.41146,-2.21708 2.27288,-4.36336 -0.13982,-2.16618 -1.05486,-2.45502 -2.43123,-0.76849 -0.98545,1.20728 -1.76488,1.19094 -1.76488,-0.0378 0,-0.37974 0.33901,-1.03175 0.75548,-1.44789 0.65464,-0.65466 0.73176,-1.03814 0.56664,-2.85685 -0.1046,-1.1561 -0.38185,-2.33134 -0.61431,-2.61144 -0.33481,-0.40374 -0.2676,-0.70753 0.32346,-1.45881 0.97354,-1.23862 0.95998,-3.08143 -0.0378,-4.42854 l -0.7837,-1.05938 0.66209,-1.94933 c 0.76891,-2.26183 0.46094,-3.45841 -1.06797,-4.15498 -0.81007,-0.36926 -0.88832,-0.56604 -0.6947,-1.71281 0.20961,-1.24076 0.12475,-1.3758 -2.02544,-3.24324 -3.11496,-2.7053 -4.24045,-3.43978 -6.40831,-4.18328 -1.91734,-0.6575 -3.33271,-0.94884 -5.09502,-0.92909 h -0.003 c -1.05744,0.0127 -2.23869,0.13621 -3.7317,0.36042 -4.5676,0.68604 -6.86271,1.70023 -9.51042,4.20282 -1.11881,1.05738 -2.39293,2.11012 -2.83087,2.3379 -1.03034,0.53598 -1.35805,1.89986 -0.78804,3.27576 0.41758,1.00806 0.38019,1.14961 -0.4646,1.86039 -1.36306,1.1466 -1.50767,2.1361 -0.56215,3.81847 0.78824,1.40276 0.79567,1.48375 0.20163,2.51814 -0.9036,1.57463 -0.75933,2.54987 0.62522,4.20703 1.19185,1.42655 1.22018,1.52283 0.712,2.50515 -0.71111,1.3754 -0.66731,2.24061 0.20627,3.95305 0.40495,0.79367 0.64667,1.53286 0.53618,1.64326 -0.11041,0.11054 -0.8357,-0.008 -1.61294,-0.26464 -1.14428,-0.37765 -1.51654,-0.38143 -1.95808,-0.017 -1.35148,1.12161 -0.0923,3.90947 2.19897,4.86712 2.50309,1.04584 5.04488,-0.32389 5.80057,-3.12602 0.81173,-3.00992 0.76237,-2.95529 1.88648,-2.07107 1.20449,0.94764 4.18776,2.11876 5.39889,2.11876 0.70721,0 0.8857,0.17779 0.8857,0.88785 0,0.84801 -0.097,0.89008 -2.09485,0.89008 -1.78287,0 -2.3446,0.17143 -3.77077,1.15483 -1.87812,1.29546 -3.38219,3.72618 -3.38219,5.46626 0,0.61514 -0.39237,1.97774 -0.87261,3.02831 -0.47939,1.04874 -1.26418,3.4237 -1.97761,5.83733 -0.34068,-0.10375 -0.82973,0.22601 -1.51088,1.00727 -0.7867,0.90188 -1.39249,1.30318 -1.75627,1.1636 -0.7927,-0.30413 -1.07554,-1.28168 -0.5947,-2.05153 0.52371,-0.83831 0.52681,-2.18534 0.0129,-2.70272 -0.29575,-0.29532 -0.21551,-0.66298 0.30161,-1.40675 0.55606,-0.79863 0.69945,-1.60665 0.70768,-3.93365 0,-2.03069 -0.13905,-3.05235 -0.47105,-3.32795 -0.34154,-0.28313 -0.37808,-0.58514 -0.13022,-1.04847 0.61152,-1.14268 0.38101,-1.89511 -0.98556,-3.21715 -0.73355,-0.70969 -1.93789,-2.0253 -2.67662,-2.92408 -2.13739,-2.60026 -6.41989,-4.32479 -10.53503,-4.43725 -0.94962,-0.0252 -1.89033,0.0335 -2.79398,0.18903 -4.59241,0.78665 -7.391924,2.7341 -9.870724,6.86851 -1.693793,2.82522 -1.689039,2.81556 -1.228692,3.92707 0.366306,0.88465 0.343632,1.15049 -0.145352,1.69109 -0.642312,0.70983 -0.777575,2.55646 -0.227686,3.10648 0.23315,0.23314 0.207111,0.7355 -0.07392,1.48054 -0.355815,0.94327 -0.322626,1.3385 0.197437,2.42918 0.584207,1.22139 0.583872,1.34533 0.0252,1.96463 -0.458354,0.50647 -0.54674,1.03685 -0.377654,2.2685 0.256672,1.87275 -0.021,1.98946 -1.691096,0.71639 -0.257508,-0.19668 -0.483678,-0.35204 -0.692546,-0.48407 -0.434034,-1.08404 -0.936863,-2.52172 -1.469617,-4.22015 l -1.699836,-5.41623 1.113583,-1.26558 1.111463,-1.26779 -1.936354,-3.6318 c -1.064569,-1.99754 -2.384964,-4.16682 -2.934994,-4.82148 -0.944563,-1.12414 -1.14271,-1.1965 -3.579759,-1.29172 -1.419102,-0.0556 -2.579963,-0.19986 -2.578934,-0.32136 10e-4,-0.12136 0.0038,-0.5199 0.0038,-0.88569 0,-0.5241 0.336073,-0.70276 1.593407,-0.84446 4.91081,-0.55355 9.803752,-5.14733 11.568371,-10.86076 1.00534,-3.25429 0.990762,-8.93801 -0.03354,-11.53148 -0.407066,-1.03239 -0.856049,-1.95833 -0.996442,-2.05794 -0.140302,-0.0997 -0.599288,-0.6753 -1.020211,-1.27862 -0.421013,-0.60337 -2.160274,-1.95396 -3.866409,-3.00017 l -3.102098,-1.90164 -3.788128,-0.15636 c -0.545722,-0.0212 -1.057884,-0.0335 -1.541341,-0.0378 z m 1.306884,2.65283 c 0.834492,0.046 1.622711,0.25792 3.02613,0.70121 5.484104,1.73236 7.42123,4.1267 7.967018,9.84912 0.296172,3.10685 0.252057,3.75085 -0.409984,5.93067 -1.385294,4.5608 -4.596396,7.96856 -8.559724,9.08058 -5.402482,1.51576 -10.66421,-0.3932 -13.6022911,-4.93216 -1.950749,-3.01353 -2.599628,-5.39117 -2.57032,-9.441 0.021,-2.9107 0.152077,-3.62693 0.946542,-5.17099 0.763462,-1.48362 1.364987,-2.05781 3.5016071,-3.33218 2.974327,-1.77412 3.82026,-2.06296 7.361329,-2.52469 0.579634,-0.0755 1.048439,-0.12899 1.465377,-0.15424 0.312549,-0.017 0.596653,-0.0212 0.874868,-0.008 z m 58.49936,7.98655 c 0.12982,0 0.30582,0.98541 0.39278,2.18817 0.1252,1.72785 0.3285,2.32326 0.96606,2.83949 0.61421,0.49743 0.96833,0.56732 1.48478,0.29068 0.55309,-0.29571 0.67992,-0.77298 0.69247,-2.57457 0.0129,-2.18211 0.021,-2.1969 0.55573,-1.21135 0.29784,0.54916 0.65555,1.66977 0.79459,2.49 0.21256,1.25523 0.39614,1.50779 1.16359,1.59776 1.22665,0.14364 1.67142,-0.49626 1.81052,-2.60501 l 0.11732,-1.76925 0.64041,2.03842 c 0.35244,1.12118 0.74958,2.10319 0.88352,2.18173 0.47426,0.2781 1.8452,-0.47032 1.8452,-1.00728 0,-0.76787 0.46604,-0.67863 1.31551,0.25415 1.37847,1.5137 1.63157,2.46749 1.66936,6.29765 0.0335,3.34157 -0.0634,3.96501 -0.88783,5.72229 -1.23583,2.63484 -2.89451,4.45667 -5.08846,5.58553 h -0.002 c -1.47437,0.75858 -2.40334,0.95292 -5.0103,1.04852 -3.42962,0.1256 -4.62493,-0.16336 -7.38742,-1.78223 -2.04472,-1.19826 -3.69789,-3.09838 -4.8126,-5.53347 -1.31319,-2.87174 -1.29456,-6.9883 0.0433,-9.72315 1.00153,-2.04691 2.79951,-4.53097 3.61665,-4.99282 0.36129,-0.2041 0.47151,0.15212 0.48414,1.54135 0.0168,2.11246 0.52819,2.89219 1.79958,2.74398 0.79938,-0.0931 0.94642,-0.32136 1.15272,-1.77568 0.226,-1.5911 1.25862,-3.84454 1.76051,-3.84454 z m -57.355339,3.31047 c -0.295737,0.004 -0.608748,0.1483 -0.926953,0.43636 -0.773461,0.70006 -0.88852,1.63465 -0.330186,2.6788 0.542319,1.01319 2.043044,0.89373 2.542041,-0.20198 0.304143,-0.66671 0.302898,-1.11238 -0.0038,-1.7866 -0.342796,-0.75258 -0.788039,-1.13413 -1.280752,-1.12666 z m -4.413353,0.0433 c -0.208787,0.0335 -0.414625,0.20409 -0.74891,0.53837 -0.787576,0.78801 -0.781445,2.12479 0.01294,3.08255 0.45347,0.54655 1.720018,0.34236 2.194723,-0.35371 0.498601,-0.73124 0.100013,-2.43947 -0.69036,-2.96109 -0.348244,-0.22979 -0.559605,-0.33818 -0.76846,-0.30627 z m 10.157371,4.81273 c -0.539389,-0.042 -1.163586,0.44486 -1.554327,1.57822 -0.628995,1.82401 -0.929654,2.14743 -2.822006,3.03706 -2.214647,1.04105 -5.309419,1.05435 -7.424315,0.0295 -1.20161,-0.58159 -1.905377,-1.27243 -2.76352,-2.70708 -1.143136,-1.9113 -1.872597,-2.31709 -2.6916651,-1.4979 -0.651757,0.65167 -0.514296,1.67374 0.445037,3.31047 1.0438621,1.78145 2.9420631,3.30018 4.9495021,3.9596 1.983784,0.65167 7.148207,0.42839 8.702918,-0.37555 2.035845,-1.05289 3.869365,-3.17884 4.144059,-4.80631 0.261287,-1.54752 -0.29238,-2.47481 -0.98553,-2.52906 z m 51.583811,0.40831 c -0.61555,0.0957 -1.07457,0.79825 -1.07457,1.91899 0,0.6064 0.19281,1.29352 0.42768,1.52823 0.23483,0.23484 0.68343,0.42766 0.99645,0.42766 1.37655,0 1.95858,-2.25939 0.86393,-3.35392 -0.41756,-0.41756 -0.84415,-0.57857 -1.21349,-0.52096 z m 4.3568,0.20834 c -0.213,-0.001 -0.46463,0.0212 -0.76851,0.0651 -0.52751,0.074 -0.77379,1.71398 -0.40371,2.68742 0.24786,0.65156 0.6082,0.91396 1.25488,0.91396 1.23673,0 1.88185,-1.56383 1.17437,-2.84605 -0.32513,-0.58921 -0.61796,-0.81609 -1.25696,-0.82059 z m -9.94888,4.74769 c -0.30414,0.0518 -0.53661,0.34111 -0.67092,0.87484 -0.33269,1.32602 0.0378,2.34202 1.4763,4.0204 1.5155,1.77052 2.84643,2.5297 5.10144,2.91108 2.63651,0.44594 4.00767,0.3768 5.96549,-0.29951 3.7664,-1.3015 5.93812,-3.56266 5.73977,-5.97631 -0.098,-1.18846 -0.23692,-1.38157 -1.07675,-1.47836 -0.80539,-0.0927 -1.00643,0.0533 -1.20264,0.8879 -0.61917,2.63202 -4.01923,4.57236 -7.5675,4.31566 -2.59731,-0.18776 -4.2501,-1.21322 -5.78309,-3.58182 -0.76981,-1.18931 -1.4754,-1.75998 -1.98199,-1.67374 z m -52.831953,11.95054 c 1.793542,-0.017 3.212772,0.0507 3.46677,0.18224 0.338592,0.17525 1.227485,1.59868 1.97543,3.16289 1.283735,2.68473 1.325138,2.87472 0.740362,3.40391 -0.820597,0.74241 -1.236404,0.42835 -1.489285,-1.13103 -0.239446,-1.47617 -0.800995,-2.29023 -1.584661,-2.29023 -0.486171,0 -0.487599,0.0677 -0.0089,0.62301 0.490579,0.56906 0.857142,2.06786 1.723616,7.02481 0.17098,0.9781 0.575634,3.14581 0.898725,4.8171 0.323038,1.6713 0.529104,3.33103 0.458059,3.68825 -0.0761,0.38356 -0.782832,0.90548 -1.727986,1.2743 h -0.0028 c -2.592045,1.01152 -7.706464,0.90749 -11.025798,-0.22347 -3.131406,-1.06717 -3.6786081,-1.60729 -3.3800051,-3.3322 0.3142181,-1.81475 1.9053741,-6.68327 2.6809951,-8.20365 0.729769,-1.43041 2.122738,-4.97354 2.123124,-5.40108 0,-0.14661 -0.169304,-0.26718 -0.375548,-0.26718 -0.206262,0 -0.778576,0.88225 -1.2721,1.96026 -0.567063,1.23834 -1.05223,1.87402 -1.315496,1.7258 -0.879947,-0.4952 -2.0166931,-1.69419 -2.0166931,-2.1275 0,-0.2491 0.7887071,-1.39982 1.7518951,-2.5572 l 1.749713,-2.10578 4.741134,-0.18012 c 0.65177,-0.0252 1.290815,-0.0378 1.888663,-0.0433 z m 29.873103,0.51665 c 0.0533,-0.008 0.12649,0.004 0.2172,0.0335 0.26801,0.0895 0.84381,1.08397 1.28084,2.21207 0.43691,1.1281 0.98953,2.28495 1.22651,2.57033 0.62151,0.74886 1.82413,0.45065 2.34447,-0.58183 0.28651,-0.56778 0.45051,-0.68159 0.4537,-0.31466 0,0.66617 1.32437,2.44872 1.81051,2.44872 0.18149,0 0.64857,-0.32096 1.03979,-0.71205 l 0.712,-0.71199 v 3.13681 c 0,4.34548 -0.67486,6.41525 -2.65708,8.16021 -0.86692,0.76304 -2.40219,1.65562 -3.41253,1.98198 -1.73364,0.55992 -4.98318,0.72597 -6.55588,0.33439 -1.6402,-0.40832 -3.7488,-2.01143 -4.79975,-3.64918 -2.505541,-3.90459 -2.670074,-9.46441 -0.36884,-12.45415 l 0.68383,-0.88787 -0.13695,1.6781 c -0.16553,2.04447 0.60622,3.24466 1.86475,2.90234 0.44028,-0.11966 0.80085,-0.39905 0.80105,-0.62082 1.3e-4,-0.22182 0.50827,-1.44416 1.13104,-2.7157 0.95985,-1.96001 1.15337,-2.17571 1.26549,-1.42193 0.29659,1.99586 0.85861,3.11083 1.77799,3.52976 0.8206,0.37387 1.02077,0.34572 1.43929,-0.21256 0.47448,-0.63319 0.42512,-2.08545 -0.13695,-3.98788 -0.1399,-0.47443 -0.14493,-0.69107 0.021,-0.71854 z m 29.70986,3.53411 c 0.35203,-0.008 0.70234,-0.004 1.04844,0.008 0.92317,0.042 1.8109,0.16293 2.58767,0.37764 1.61758,0.44687 3.95434,2.67405 4.31567,4.11371 0.17142,0.68399 0.06,1.06297 -0.41883,1.4132 -0.97265,0.71129 -1.1739,0.6015 -1.43272,-0.77714 -0.2533,-1.3506 -1.15992,-2.08378 -2.12093,-1.715 -0.4705,0.18055 -0.54784,0.50165 -0.36925,1.51088 0.29867,1.68326 0.89486,9.01142 0.90742,11.11694 0.008,1.53787 -0.074,1.68235 -1.11361,2.04483 -2.49692,0.86928 -7.11568,0.16209 -7.62612,-1.16791 -0.10964,-0.28607 0.13443,-2.123 0.54052,-4.08339 0.88691,-4.28045 0.94973,-7.05926 0.18441,-8.15149 -0.73926,-1.0555 -1.85293,-1.00774 -2.35759,0.0999 -0.46617,1.02325 -0.83538,1.12072 -1.27432,0.33649 -0.52974,-0.94656 -0.0483,-2.61429 1.01378,-3.50816 1.14827,-0.96614 3.65226,-1.56435 6.11538,-1.61936 z m -27.7843,3.19117 c -0.77959,0 -1.12204,0.21971 -1.37617,0.88789 -0.37975,0.999 0.0335,2.48396 0.77715,2.78088 0.2571,0.10289 0.51784,0.19964 0.57963,0.21509 0.0621,0.017 0.42256,-0.13812 0.80102,-0.34069 0.43605,-0.23315 0.68592,-0.74388 0.68592,-1.39364 0,-1.64906 -0.3407,-2.14923 -1.46744,-2.14923 z m -4.22003,0.0252 c -0.20751,-0.001 -0.41966,0.0605 -0.62521,0.18903 -0.7488,0.46877 -1.01656,2.47469 -0.42558,3.18683 1.07066,1.29004 2.97215,-0.14279 2.50528,-1.88855 -0.24743,-0.92485 -0.83179,-1.48337 -1.45445,-1.4871 z m -4.5023,4.63908 c -0.30035,-0.008 -0.55317,0.15085 -0.80971,0.4602 -0.32095,0.38689 -0.29953,0.77468 0.0869,1.6889 0.67654,1.59908 1.66114,2.41327 3.88787,3.20842 3.77836,1.3493 8.35894,0.25373 9.62997,-2.30321 1.21694,-2.44795 -0.36631,-3.81578 -1.9451,-1.68029 -1.09024,1.47462 -3.37434,2.29318 -5.5075,1.97324 -1.34814,-0.20198 -1.97594,-0.56006 -3.20197,-1.82132 -1.00454,-1.03364 -1.63968,-1.51242 -2.14048,-1.52605 z m -34.7422701,3.63836 c 0.07725,0.0777 -0.131476,1.12204 -0.464602,2.32058 -0.551713,1.98416 -1.20049,2.89951 -1.20049,1.69327 0,-0.63014 1.480288,-4.19868 1.66513,-4.01385 z m 30.6713501,2.01014 c 0.126872,0 1.65035,0.96022 3.38643,2.13393 1.73609,1.17372 3.29299,2.13392 3.46035,2.13392 0.16718,0 0.30413,0.24071 0.30413,0.53403 0,0.2936 -0.21761,0.53403 -0.48196,0.53403 -0.86894,0 -4.60591,-0.22852 -5.71586,0.58609 -0.49986,0.48294 -0.844612,0.92941 -1.063687,1.34378 -0.363374,0.1169 -0.809915,0.0789 -1.53916,-0.0802 -0.695912,-0.15297 -1.159176,-0.42736 -1.895218,-1.20919 0.665575,-0.14661 1.298913,-0.44376 1.851772,-0.93777 0.954782,-0.85295 1.154396,-1.31474 1.295958,-3.02177 0.09229,-1.10877 0.270952,-2.01669 0.3974,-2.01669 z m 19.34811,1.4979 c 0.18358,0.0462 0.24617,0.36842 0.37554,1.01379 0.26634,1.33092 1.91939,3.05415 3.25186,3.38863 0.0252,0.004 0.0461,0.008 0.0693,0.0127 -0.009,0.008 -0.0168,0.0127 -0.021,0.0212 -0.64596,0.75039 -1.36614,1.11764 -2.99798,1.52399 -0.92683,0.23105 -1.79727,0.33944 -2.27056,0.31254 -0.0336,-0.27558 -0.0739,-0.51661 -0.13232,-0.64692 -0.67814,-1.51474 -3.60303,-0.60267 -5.73528,-1.27647 -1.57335,-0.49709 -2.01013,-1.22211 -0.56228,-1.23303 1.31241,-0.008 5.70713,-1.58465 6.91413,-2.477 0.61853,-0.45727 0.92553,-0.68668 1.10937,-0.64036 z m -47.978216,3.17812 c 0.257508,5.5e-4 0.536739,0.1273 0.698959,0.33436 1.183509,1.51243 8.137979,2.2135 12.078555,1.21787 2.234056,-0.56445 2.48574,-0.56878 3.006592,-0.0477 0.786149,0.78559 1.023989,6.64717 0.40371,9.9337 -0.430936,2.28368 -0.555982,2.50813 -1.634666,2.95892 -0.64231,0.26843 -2.132636,0.48844 -3.312778,0.48844 h -2.144719 v -3.50381 c 0,-3.97233 -0.446604,-5.74402 -1.445838,-5.74402 -1.133121,0 -1.459462,1.25258 -1.361127,5.21226 0.07313,2.9328 -0.01676,3.80368 -0.41672,4.05727 h -0.0028 c -0.857642,0.54271 -3.987364,0.37262 -5.303375,-0.2886 -0.680783,-0.34194 -1.6178271,-1.18222 -2.0818621,-1.86693 -0.768243,-1.13395 -0.827359,-1.51395 -0.666425,-4.26784 0.226427,-3.87966 1.20837,-8.16087 1.9363521,-8.44018 0.07572,-0.0295 0.15963,-0.0437 0.245322,-0.0433 z m 36.311766,2.81556 c 2.28149,-0.0458 5.24283,0.35961 6.99434,0.69033 1.22769,-0.12857 1.51576,0.91367 1.39802,1.87788 a 4.7404917,7.5058106 49.937 0 0 -0.37345,0.9356 c 0.0335,-0.0441 0.1022,-0.084 0.1714,-0.1239 -0.18946,0.49569 -1.35496,1.01135 -1.92774,0.67298 -1.33375,-0.31421 -2.81866,-0.37555 -3.08256,0.67515 -0.11594,0.46135 -0.0378,2.07286 0.17141,3.58195 0.20963,1.50895 0.38228,2.81224 0.38228,2.89591 0,0.18989 -1.80858,0.11308 -3.91191,-0.16718 l -1.60202,-0.21256 v -3.38002 c 0,-3.37613 6.8e-4,-3.37755 -0.88785,-3.3431 -0.48902,0.0212 -1.83506,0.11435 -2.17737,0.26255 -0.49893,0.21676 -0.82925,-2.85942 -0.82925,-3.57321 0,-1.17136 2.40219,-0.53282 4.74332,-0.7446 0.2928,-0.0252 0.60534,-0.042 0.93131,-0.0477 z m 28.78307,0.0458 c 0.0726,-0.0127 0.16678,-0.008 0.28441,0.0127 0.1567,0.0252 0.35832,0.0738 0.61655,0.14321 0.63576,0.171 2.68884,0.30625 4.56311,0.30163 l 3.40815,-0.008 0.43639,3.49068 c 0.23944,1.92029 0.72565,4.63611 1.081,6.03491 0.64508,2.54037 0.6452,2.54359 -0.10841,3.17369 -0.41505,0.34699 -1.23677,0.78711 -1.82363,0.97687 -2.29666,0.74258 -4.54884,0.69334 -8.65729,-0.18437 -2.39924,-0.51271 -2.59359,-0.62025 -2.39448,-1.32643 0.44403,-1.57385 2.33792,-11.32452 2.33792,-12.03511 0,-0.37049 0.0378,-0.5458 0.25626,-0.57962 z m -30.72405,14.24499 c 0.21759,0.0127 0.50284,0.0541 0.88137,0.11075 0.83853,0.1256 2.40373,0.26087 3.4777,0.29953 1.70664,0.0617 2.20474,0.26465 3.95536,1.61512 1.91154,1.47464 1.97388,1.57592 1.40007,2.20988 -0.33061,0.36547 -1.40419,0.90247 -2.38573,1.19398 -2.57045,0.76337 -6.10599,0.67461 -8.04286,-0.2041 -0.87306,-0.39615 -1.65164,-0.78559 -1.73017,-0.864 -0.0789,-0.0785 0.19071,-0.56622 0.59906,-1.0854 0.40833,-0.51917 0.84605,-1.49533 0.97255,-2.16862 0.17098,-0.91222 0.21969,-1.14412 0.87272,-1.10714 z m 11.09945,11.76157 c 0.33481,0.008 0.64568,0.15467 0.85971,0.44718 0.37219,0.51158 0.37723,0.70322 0.0252,0.92697 -0.24575,0.15509 -0.96922,0.28563 -1.61076,0.28858 -1.04512,0.004 -1.12989,-0.0668 -0.801,-0.68163 0.34487,-0.6445 0.96781,-0.99837 1.52604,-0.98122 z m -26.00657,0.24533 c 1.619753,0 0.03779,2.90106 -2.057954,3.77732 -0.645537,0.2697 -1.264068,0.49056 -1.374112,0.49056 -0.347835,0 -0.617784,-1.04569 -0.41042,-1.58683 0.285233,-0.7435 3.062507,-2.68099 3.842498,-2.68099 z m -25.9281601,0.0127 c 0.537921,-0.0923 1.557798,0.31255 2.756834,1.2656 0.880293,0.69968 1.584021,1.4191 1.563068,1.59776 -0.021,0.17842 -0.05976,0.48381 -0.08909,0.67948 -0.148279,0.98939 -3.026257,-0.29153 -4.100738,-1.82566 -0.724552,-1.03452 -0.668083,-1.62492 -0.130224,-1.71721 z M 89.7863,287.94832 h 0.002 c 0.8906,0 0.87306,1.28643 -0.0252,1.76706 -0.85509,0.45748 -2.51376,0.48137 -2.51376,0.0378 0,-0.52073 1.80523,-1.80396 2.53767,-1.80396 z m -48.86516,0.0212 c 0.4904,5.5e-4 1.01978,0.17143 1.46087,0.51233 0.68336,0.52813 0.68336,0.53778 0,1.06587 -1.51409,1.17 -3.791463,0.26255 -2.68523,-1.0702 0.28188,-0.33944 0.73389,-0.50885 1.22438,-0.508 z m 29.10443,1.03768 c 0.56228,0.0252 1.45008,0.31211 2.18829,0.76847 0.91708,0.56681 1.10827,0.83642 0.75324,1.06154 -0.84603,0.53622 -1.93455,0.33061 -2.7265,-0.51234 -0.42559,-0.45271 -0.77279,-0.93179 -0.77279,-1.06586 0,-0.19073 0.22054,-0.26759 0.55783,-0.25164 z"
       id="path3955"
       inkscape:connector-curvature="0"
       style="fill:#070707;stroke-width:0.35567507" />
  </g>
</svg>
