<?xml version="1.0" encoding="UTF-8" standalone="no"?>
<!-- Created with Inkscape (http://www.inkscape.org/) -->

<svg
   xmlns:dc="http://purl.org/dc/elements/1.1/"
   xmlns:cc="http://creativecommons.org/ns#"
   xmlns:rdf="http://www.w3.org/1999/02/22-rdf-syntax-ns#"
   xmlns:svg="http://www.w3.org/2000/svg"
   xmlns="http://www.w3.org/2000/svg"
   xmlns:sodipodi="http://sodipodi.sourceforge.net/DTD/sodipodi-0.dtd"
   xmlns:inkscape="http://www.inkscape.org/namespaces/inkscape"
   width="100mm"
   height="100mm"
   viewBox="0 0 100 100"
   version="1.1"
   id="svg912"
   inkscape:version="0.92.3 (2405546, 2018-03-11)"
   sodipodi:docname="big_ico2.svg">
  <defs
     id="defs906">
    <clipPath
       clipPathUnits="userSpaceOnUse"
       id="clipPath1484">
      <circle
         style="opacity:1;fill:none;fill-opacity:1;stroke:#d52b1e;stroke-width:1.24364889;stroke-linecap:round;stroke-linejoin:round;stroke-miterlimit:4;stroke-dasharray:none;stroke-dashoffset:0;stroke-opacity:1"
         id="circle1486"
         cx="47.261021"
         cy="245.03526"
         r="34.819977" />
    </clipPath>
  </defs>
  <sodipodi:namedview
     id="base"
     pagecolor="#ffffff"
     bordercolor="#666666"
     borderopacity="1.0"
     inkscape:pageopacity="0.0"
     inkscape:pageshadow="2"
     inkscape:zoom="1.6705398"
     inkscape:cx="233.26454"
     inkscape:cy="134.75141"
     inkscape:document-units="mm"
     inkscape:current-layer="layer1"
     showgrid="false"
     inkscape:window-width="1920"
     inkscape:window-height="1025"
     inkscape:window-x="0"
     inkscape:window-y="27"
     inkscape:window-maximized="1" />
  <metadata
     id="metadata909">
    <rdf:RDF>
      <cc:Work
         rdf:about="">
        <dc:format>image/svg+xml</dc:format>
        <dc:type
           rdf:resource="http://purl.org/dc/dcmitype/StillImage" />
        <dc:title></dc:title>
      </cc:Work>
    </rdf:RDF>
  </metadata>
  <g
     inkscape:label="Layer 1"
     inkscape:groupmode="layer"
     id="layer1"
     transform="translate(0,-197)">
    <path
       style="fill:#070707;stroke-width:0.9671495"
       d="m 49.416823,201.58503 c -2.253043,-0.01 -4.479493,0.15914 -6.629453,0.52897 -12.488105,2.13864 -20.100672,7.43424 -26.841056,18.67678 -4.606106,7.68232 -4.593158,7.65659 -3.341309,10.6789 0.996088,2.40557 0.934106,3.12804 -0.395535,4.59809 -1.74658,1.93015 -2.115117,6.95136 -0.620415,8.4471 0.633979,0.63397 0.564307,2.00019 -0.199893,4.02605 -0.967531,2.56482 -0.877221,3.63977 0.536948,6.60554 1.5886,3.32124 1.585561,3.65826 0.06858,5.34237 -1.246366,1.37716 -1.486359,2.81929 -1.026582,6.16853 0.697947,5.09227 -0.05717,5.40965 -4.5986204,1.9479 C 1.552169,264.93071 0,265.36096 0,270.37028 c 0,3.10662 0.5563487,4.69678 2.17225,6.16853 5.6417176,5.13888 12.508342,5.69965 17.301444,1.4168 2.596223,-2.31944 3.139235,-3.57494 3.524191,-8.21691 0.251304,-3.015 0.736977,-5.48379 1.080808,-5.48379 0.344975,0 4.487498,2.61118 9.208404,5.80277 4.720795,3.19159 8.954495,5.80224 9.409362,5.80224 0.454635,0 0.826157,0.65485 0.826157,1.45242 0,0.79846 -0.59196,1.45189 -1.310473,1.45189 -1.327479,0 -5.116483,-0.19643 -8.717178,0.0239 5.883966,5.0462 16.194168,7.79404 25.095176,1.86443 -0.748938,-0.11471 -1.481205,-0.27195 -2.18182,-0.49335 -4.277813,-1.35168 -5.470597,-3.3249 -1.533758,-3.3546 3.568778,-0.0229 15.525078,-4.3089 18.807026,-6.73525 3.363507,-2.48679 3.328737,-2.4958 4.031367,1.01542 0.724215,3.61926 5.219335,8.30515 8.843172,9.21478 7.286858,1.82881 13.605222,-3.26705 13.44073,-10.84371 -0.14165,-6.58538 -1.812948,-7.42452 -5.75492,-2.9043 -2.139301,2.45239 -3.78642,3.54321 -4.775653,3.16374 -2.155524,-0.82703 -2.925234,-3.48516 -1.617758,-5.57842 1.424112,-2.27969 1.437741,-5.94201 0.03456,-7.34875 -0.804181,-0.80304 -0.587535,-1.80276 0.819777,-3.8251 1.512069,-2.17163 1.902115,-4.36913 1.924511,-10.69644 0,-5.522 -0.377944,-8.30008 -1.280703,-9.04945 -0.928694,-0.76991 -1.028031,-1.59106 -0.354066,-2.85114 1.662961,-3.10706 1.035949,-5.15296 -2.679961,-8.74801 -1.9948,-1.92981 -5.269618,-5.50767 -7.278578,-7.95163 -5.812038,-7.07061 -17.457012,-11.76045 -28.647013,-12.06591 h -0.0032 c -0.322786,-0.009 -0.645174,-0.014 -0.967041,-0.0154 z m 4.332805,16.33015 c 0.128669,0.004 0.286507,0.0384 0.47156,0.0983 0.72879,0.24329 2.29427,2.94724 3.482723,6.01489 1.188107,3.06754 2.691088,6.21341 3.33546,6.98937 1.69003,2.03638 4.959717,1.22541 6.374806,-1.58214 0.779051,-1.54394 1.225115,-1.8532 1.233917,-0.85539 0,1.81147 3.600938,6.65816 4.922917,6.65816 0.49348,0 1.763924,-0.87219 2.827752,-1.93567 l 1.936205,-1.93621 v 8.52951 c 0,11.81633 -1.835348,17.4449 -7.225415,22.1898 -2.357374,2.07488 -6.532413,4.50181 -9.279644,5.38916 -4.714287,1.52257 -13.550145,1.97396 -17.826697,0.90909 -4.460119,-1.10801 -10.194179,-5.46624 -13.052106,-9.91973 -6.813262,-10.61747 -7.260876,-25.73585 -1.002658,-33.86551 l 1.859119,-2.41467 -0.371082,4.563 c -0.450065,5.55936 1.648489,8.82313 5.070711,7.89261 1.197133,-0.32554 2.177528,-1.08546 2.178097,-1.68846 3.43e-4,-0.60314 1.382139,-3.92675 3.075494,-7.38438 2.610153,-5.32941 3.136795,-5.9163 3.441787,-3.86656 0.806473,5.4272 2.334435,8.459 4.834134,9.59809 2.23138,1.01665 2.776033,0.94023 3.913879,-0.57788 1.29023,-1.72169 1.155419,-5.67091 -0.371613,-10.84371 -0.380385,-1.29012 -0.390331,-1.87957 0.05742,-1.95428 l -0.0058,-5.3e-4 c 0.03627,-0.006 0.0762,-0.008 0.119086,-0.007 z m 5.117495,18.29453 c -2.120231,0 -3.051486,0.5972 -3.742692,2.41415 -1.032645,2.71651 0.09148,6.75455 2.113238,7.56193 0.699092,0.27987 1.408603,0.54254 1.576289,0.5848 0.169063,0.0457 1.148995,-0.37605 2.1781,-0.92664 1.185586,-0.63397 1.865496,-2.02255 1.865496,-3.78947 0,-4.48422 -0.926432,-5.84424 -3.990431,-5.84424 z m -11.475817,0.0686 c -0.564297,-0.003 -1.141233,0.16454 -1.700162,0.51409 -2.036155,1.2747 -2.763824,6.72897 -1.156832,8.66561 2.911498,3.50802 8.082007,-0.38827 6.812339,-5.13557 -0.672814,-2.51306 -2.261879,-4.03206 -3.955345,-4.042 z m -12.243494,12.61458 c -0.816508,-0.0226 -1.503506,0.41023 -2.200959,1.25146 -0.872716,1.05206 -0.815936,2.10667 0.234982,4.59277 1.839678,4.3484 4.51757,6.56223 10.572573,8.72462 10.274095,3.66906 22.729406,0.68992 26.185552,-6.26316 3.309141,-6.65656 -0.996209,-10.37627 -5.28921,-4.56938 -2.96462,4.01004 -9.175058,6.23616 -14.975553,5.36629 -3.665758,-0.54944 -5.373496,-1.52304 -8.707074,-4.95268 -2.731237,-2.81039 -4.458006,-4.11238 -5.81978,-4.14992 z"
       id="path1771-6"
       inkscape:connector-curvature="0" />
  </g>
</svg>
