<?xml version="1.0" encoding="UTF-8" standalone="no"?>
<!-- Created with Inkscape (http://www.inkscape.org/) -->

<svg
   xmlns:dc="http://purl.org/dc/elements/1.1/"
   xmlns:cc="http://creativecommons.org/ns#"
   xmlns:rdf="http://www.w3.org/1999/02/22-rdf-syntax-ns#"
   xmlns:svg="http://www.w3.org/2000/svg"
   xmlns="http://www.w3.org/2000/svg"
   xmlns:sodipodi="http://sodipodi.sourceforge.net/DTD/sodipodi-0.dtd"
   xmlns:inkscape="http://www.inkscape.org/namespaces/inkscape"
   width="300"
   height="300"
   viewBox="0 0 79.374998 79.375002"
   version="1.1"
   id="svg1832"
   inkscape:version="0.92.3 (2405546, 2018-03-11)"
   sodipodi:docname="family_02.svg">
  <defs
     id="defs1826" />
  <sodipodi:namedview
     id="base"
     pagecolor="#ffffff"
     bordercolor="#666666"
     borderopacity="1.0"
     inkscape:pageopacity="0.0"
     inkscape:pageshadow="2"
     inkscape:zoom="0.83526989"
     inkscape:cx="160.52031"
     inkscape:cy="363.00996"
     inkscape:document-units="mm"
     inkscape:current-layer="layer1"
     showgrid="false"
     units="px"
     inkscape:window-width="1920"
     inkscape:window-height="1025"
     inkscape:window-x="0"
     inkscape:window-y="27"
     inkscape:window-maximized="1" />
  <metadata
     id="metadata1829">
    <rdf:RDF>
      <cc:Work
         rdf:about="">
        <dc:format>image/svg+xml</dc:format>
        <dc:type
           rdf:resource="http://purl.org/dc/dcmitype/StillImage" />
        <dc:title></dc:title>
      </cc:Work>
    </rdf:RDF>
  </metadata>
  <g
     inkscape:label="Layer 1"
     inkscape:groupmode="layer"
     id="layer1"
     transform="translate(0,-217.62498)">
    <path
       style="fill:#070707;stroke-width:0.27669632"
       d="m 15.45722,221.25003 c -2.63249,-0.0228 -4.19515,0.33129 -6.3314203,1.34602 -2.165071,1.0285 -3.847041,2.59619 -4.828271,4.50068 -0.631359,1.22504 -0.77247,1.90718 -0.87314,4.20519 -0.1402,3.20483 0.20883,5.09697 1.40675,7.63345 1.460951,3.09319 4.809941,5.86039 7.5963613,6.27567 1.18068,0.17582 1.74024,0.70378 1.5436,1.45576 -0.0954,0.36413 -0.38505,0.5074 -1.0083,0.49988 -0.48102,-0.007 -1.12418,0.007 -1.42869,0.0294 -0.60571,0.0434 -3.9812303,3.15217 -5.2421203,4.82667 l -0.79038,1.04875 0.871499,0.90011 c 0.47981,0.49506 0.873061,1.05217 0.873061,1.23793 0,0.18562 -0.627081,1.58739 -1.39325,3.1142 -0.76619,1.52678 -1.64772,3.42239 -1.959001,4.21357 -0.33077,0.83998 -0.96091,1.76477 -1.51318,2.22082 -1.11036,0.91676 -1.18409,1.53887 -0.30393,2.56195 0.52969,0.61577 0.88593,0.75168 2.03839,0.77685 l 1.39671,0.0294 -0.136939,4.47539 c -0.128111,4.19655 -0.1,4.53278 0.445829,5.41604 0.32616,0.52753 1.20451,1.28237 1.997841,1.71416 l 1.41693,0.77008 -0.17549,2.25121 c -0.0961,1.23821 -0.24674,3.18539 -0.334391,4.32676 -0.0876,1.14138 -0.1817,2.10252 -0.21112,2.13634 -0.0294,0.0337 -0.502299,-0.30818 -1.050419,-0.75996 -0.57325,-0.47249 -1.717931,-1.00649 -2.6937,-1.25647 -1.594661,-0.40852 -1.749951,-0.40426 -2.563611,0.0709 -1.11326,0.65028 -1.44687,1.64588 -1.04875,3.12434 0.33844,1.25696 1.87868,3.13871 3.07868,3.75929 1.864401,0.96407 5.63173,0.0869 6.4428603,-1.49965 0.235961,-0.46192 0.439791,-2.26543 0.550541,-4.88239 0.0967,-2.28276 0.24838,-4.71968 0.33782,-5.41438 l 0.1621,-1.2632 2.26977,-0.32766 c 1.24759,-0.1804 2.40926,-0.32763 2.5822,-0.32763 0.40786,0 0.56913,1.41829 0.73973,6.50196 0.16438,4.90066 0.5942,6.54489 1.92521,7.35651 1.59792,0.97436 4.09571,0.56777 5.64408,-0.91871 1.17753,-1.13069 1.99958,-2.69648 1.99958,-3.80998 0,-1.06611 -1.06687,-2.19595 -2.13138,-2.25628 -1.42514,-0.0807 -1.85316,0.0539 -3.25601,1.02005 -0.76757,0.52863 -1.4569,0.96095 -1.53177,0.96095 -0.0745,0 -0.14379,-0.34317 -0.15359,-0.76165 -0.01,-0.41851 -0.11831,-2.44857 -0.24152,-4.51086 l -0.22451,-3.74918 1.68714,-0.46949 c 1.10738,-0.30785 1.82489,-0.68364 2.08568,-1.09268 0.40899,-0.64182 1.08163,-8.55249 0.81401,-9.5756 -0.0543,-0.20655 -0.037,-0.33935 0.10457,-0.43739 0.24413,0.22059 0.57934,0.36517 1.01496,0.38167 0.39603,0.0164 1.53325,0.39128 2.52479,0.83764 0.99169,0.44631 2.41409,0.91689 3.163159,1.04709 0.11634,0.0196 0.23236,0.05 0.347912,0.0794 0.217979,1.1442 0.7796,2.34778 1.960739,2.81696 0.66574,0.12713 0.998731,0.10067 0.744771,2.9335 -0.18302,2.44127 -0.461121,3.08456 -1.7125,3.95856 -0.494951,0.34567 -0.995489,0.7592 -1.111171,0.91872 -0.55627,0.76725 0.8191,3.03441 2.453849,4.04474 0.7712,0.47658 0.938951,0.74814 0.938951,1.525 0,0.92103 -0.0294,0.94575 -1.119669,0.94575 -2.174311,0 -3.860702,1.47438 -3.860702,3.37594 0,1.41894 0.396811,2.11709 1.472721,2.58559 1.728481,0.75111 3.905401,0.30133 5.03433,-1.04032 0.696561,-0.82783 0.729531,-1.00316 0.640109,-3.38101 l -0.0964,-2.50792 1.313958,-0.0844 c 1.211921,-0.0778 1.31595,-0.0339 1.317263,0.55394 0.01,2.7623 2.178719,5.15868 4.753977,5.24381 1.772841,0.0585 2.193171,-0.0464 2.865972,-0.71947 1.22206,-1.22193 0.545809,-3.94489 -1.138261,-4.58513 -0.945258,-0.35942 -2.51161,-0.34213 -3.21719,0.0353 -0.43106,0.23072 -0.623981,0.21994 -0.787049,-0.0438 -0.344752,-0.55776 -0.0647,-0.91486 1.27004,-1.62296 1.75064,-0.92871 2.891219,-2.29947 2.891219,-3.47392 0.1755,-0.90143 -0.334881,-1.37569 -1.035191,-1.66854 -1.697688,-0.8863 -1.974828,-2.45239 -2.560298,-4.38418 -0.711722,-2.34824 0.16569,-2.69988 0.731268,-2.68017 1.28075,-0.91801 2.196682,-0.53123 2.246172,-1.45913 0.0294,-0.0738 0.0546,-0.55603 0.0709,-1.118 1.320102,-0.067 3.3162,-0.51175 4.242372,-0.97444 0.367818,-0.18367 1.02643,-0.22942 1.464159,-0.0981 0.56247,0.16864 1.05869,0.0327 1.427059,-0.2719 0.786662,0.47916 1.74542,0.40779 2.56868,-0.23987 0.90237,-0.7099 0.95727,-1.82885 0.1402,-2.86764 -0.58417,-0.74283 -0.58443,-0.76456 -0.0977,-2.59739 0.76169,-2.86888 1.52217,-4.75236 1.91845,-4.75236 0.1987,0 0.52512,0.19706 0.72617,0.4391 0.30393,0.36625 0.25883,1.35174 -0.26504,5.88046 -0.69496,6.0056 -1.10922,8.21395 -2.17356,11.55831 -0.39256,1.23425 -0.63397,2.45346 -0.53531,2.71053 0.0987,0.25719 0.8831,0.77829 1.74286,1.15856 l 1.5622,0.6924 -0.17582,1.68715 c -0.0971,0.92806 -0.17843,2.5719 -0.18073,3.65291 -0.007,2.53101 -0.11601,2.69677 -1.53851,2.31706 -1.55426,-0.41485 -2.48748,-0.12354 -2.8389,0.88492 -0.504878,1.44815 0.168961,2.958 1.75296,3.92652 h 0.002 c 1.57093,0.96043 4.32839,0.4426 5.26571,-0.98797 0.41269,-0.62979 0.42662,-0.91382 0.12321,-2.44373 -0.24805,-1.25107 -0.27583,-2.61353 -0.0997,-4.91275 l 0.24478,-3.18176 2.21235,0.0911 c 1.21755,0.051 2.24859,0.12779 2.29009,0.16897 0.0415,0.0412 0.1474,1.43095 0.23466,3.08887 0.18791,3.56275 0.7557,6.09308 1.56209,6.95961 1.24975,1.34295 4.24627,1.41746 5.7623,0.14183 1.1382,-0.95888 1.12781,-2.47676 -0.0294,-3.63265 -1.01849,-1.01846 -1.72521,-1.15209 -3.23917,-0.61642 -0.6414,0.2268 -1.22092,0.35596 -1.28687,0.28726 -0.066,-0.0689 -0.21046,-1.70476 -0.31929,-3.63602 l -0.19772,-3.51274 1.61452,-1.05382 c 0.88794,-0.57976 1.71907,-1.12804 1.84757,-1.21935 0.12844,-0.0911 0.0294,-0.95055 -0.21765,-1.90836 -0.85577,-3.30267 -1.81348,-9.51893 -1.91682,-12.43479 -0.0569,-1.60809 -0.19314,-3.5133 -0.30393,-4.23385 -0.18628,-1.21301 -0.15328,-1.32817 0.45606,-1.5571 0.43896,-0.16504 0.71757,-0.1425 0.83594,0.066 0.0974,0.17158 0.44844,1.8907 0.78022,3.82011 0.55426,3.22294 0.56792,3.56167 0.16732,4.17309 -0.79593,1.21471 0.47159,3.24761 2.0249,3.24761 0.9743,0 1.38493,-0.31014 1.71076,-1.29703 0.2791,-0.84614 0.2487,-1.06971 -0.23138,-1.7192 -0.32125,-0.43468 -0.63096,-1.43472 -0.73975,-2.39307 -0.22093,-1.94535 -0.8032,-4.32775 -1.42031,-5.80449 -0.25654,-0.61305 -0.37622,-1.39673 -0.28367,-1.85939 0.20099,-1.00533 -0.30196,-1.9978 -2.2613,-4.4534 -1.54439,-1.93567 -2.71681,-2.69057 -4.25074,-2.73422 -0.62698,-0.0164 -0.79205,-0.14903 -0.79205,-0.63499 0,-0.54714 0.18595,-0.63603 1.71413,-0.80895 1.4473,-0.16373 2.4973,-0.49874 5.41097,-1.72766 0.22648,-0.0954 0.34622,0.10686 0.34622,0.58433 0,2.80061 2.72658,4.73383 5.09348,3.61069 1.29856,-0.6162 1.876,-1.72476 1.76815,-3.3945 -0.10882,-1.68522 -0.82064,-1.90987 -1.89145,-0.59786 -0.76663,0.93923 -1.37305,0.92652 -1.37305,-0.0294 0,-0.29543 0.26373,-0.80267 0.58773,-1.12644 0.50929,-0.50929 0.56929,-0.80763 0.44083,-2.22251 -0.0813,-0.8994 -0.29706,-1.81374 -0.47792,-2.03162 -0.26047,-0.31407 -0.20818,-0.55042 0.25164,-1.13491 0.75737,-0.96359 0.74682,-2.39722 -0.0294,-3.44519 l -0.60969,-0.82415 0.51508,-1.51654 c 0.59818,-1.75966 0.3586,-2.69047 -0.83084,-3.23241 -0.63019,-0.28726 -0.69107,-0.44035 -0.54044,-1.3325 0.16307,-0.96525 0.0971,-1.07032 -1.5757,-2.52307 -2.42346,-2.10457 -3.29904,-2.67599 -4.98549,-3.25437 -1.49158,-0.51152 -2.59272,-0.73817 -3.96368,-0.7228 h -0.002 c -0.82264,0.01 -1.74162,0.10588 -2.90306,0.2804 -3.5534,0.5337 -5.33894,1.32272 -7.39867,3.26957 -0.870386,0.8226 -1.861647,1.64162 -2.202256,1.81884 -0.80156,0.41697 -1.05646,1.47802 -0.613061,2.54844 0.324861,0.78423 0.29577,0.89434 -0.361439,1.44733 -1.06036,0.89202 -1.172911,1.66185 -0.43733,2.97061 0.61322,1.0913 0.619001,1.15434 0.156861,1.95904 -0.702961,1.22497 -0.59073,1.98371 0.486389,3.27293 0.927211,1.10981 0.949251,1.18467 0.55391,1.94892 -0.553219,1.07003 -0.519141,1.74308 0.16046,3.07531 0.315039,0.61744 0.503081,1.19248 0.417131,1.27844 -0.0859,0.086 -0.650142,-0.007 -1.254831,-0.20589 -0.890199,-0.2938 -1.179841,-0.29674 -1.523291,-0.0131 -1.05137,0.87257 -0.0718,3.04139 1.71074,3.78635 1.947341,0.81362 3.924687,-0.25197 4.512577,-2.4319 0.63149,-2.34157 0.59309,-2.29906 1.46763,-1.61116 0.93704,0.73721 3.25793,1.64831 4.20008,1.64831 0.55018,0 0.68904,0.13825 0.68904,0.69071 0,0.65972 -0.0755,0.69244 -1.62972,0.69244 -1.38703,0 -1.82398,0.13334 -2.93352,0.89842 -1.46112,1.00778 -2.63121,2.89878 -2.63121,4.25247 0,0.47855 -0.30525,1.53855 -0.67885,2.35589 -0.37295,0.81588 -0.983476,2.66351 -1.538506,4.54124 -0.265031,-0.0807 -0.645499,0.17582 -1.175451,0.78362 -0.612019,0.70162 -1.083268,1.01379 -1.366279,0.90522 -0.616691,-0.23661 -0.836729,-0.99709 -0.462659,-1.59596 0.407429,-0.65218 0.40984,-1.70008 0.01,-2.10257 -0.230079,-0.22975 -0.167658,-0.51577 0.234641,-1.09435 0.432591,-0.62129 0.544139,-1.24994 0.55054,-3.06015 0,-1.57982 -0.108181,-2.37458 -0.366451,-2.58896 -0.2657,-0.22027 -0.294129,-0.45522 -0.101309,-0.81568 0.475739,-0.88895 0.29641,-1.47429 -0.76672,-2.50285 -0.570669,-0.55211 -1.507562,-1.57564 -2.082321,-2.27484 -1.66275,-2.02286 -4.99445,-3.36454 -8.195818,-3.45196 -0.738772,-0.0196 -1.470562,0.0261 -2.17356,0.14706 -3.572751,0.61198 -5.750592,2.12702 -7.67901,5.34343 -1.317752,2.19787 -1.314022,2.19041 -0.955871,3.05508 0.284969,0.68822 0.26733,0.89503 -0.11308,1.31559 -0.499691,0.55221 -0.604921,1.98879 -0.177131,2.4167 0.18138,0.18138 0.161121,0.57218 -0.0575,1.15177 -0.276811,0.73382 -0.250991,1.04131 0.153598,1.8898 0.454491,0.95019 0.454232,1.04656 0.01961,1.52837 -0.356579,0.394 -0.425339,0.80662 -0.293799,1.76482 0.199679,1.45691 -0.0164,1.54769 -1.31563,0.55731 -0.20033,-0.15295 -0.37628,-0.27387 -0.53877,-0.37658 -0.33766,-0.84333 -0.72884,-1.9618 -1.14327,-3.28307 l -1.32235,-4.21362 0.86632,-0.98457 0.86467,-0.98627 -1.50635,-2.8254 c -0.82819,-1.55397 -1.85541,-3.2416 -2.28333,-3.75087 -0.73483,-0.87453 -0.88898,-0.93083 -2.78488,-1.00486 -1.10402,-0.0432 -2.00709,-0.15556 -2.00631,-0.25001 6.87e-4,-0.0944 0.003,-0.40445 0.003,-0.68903 0,-0.40773 0.26145,-0.54672 1.23961,-0.65695 3.820508,-0.43063 7.626988,-4.00443 8.999808,-8.44917 0.78211,-2.53167 0.77077,-6.95337 -0.0261,-8.97103 -0.31668,-0.80316 -0.66597,-1.52348 -0.77519,-1.60099 -0.10915,-0.0775 -0.46622,-0.52535 -0.79368,-0.99471 -0.32753,-0.46939 -1.68057,-1.52007 -3.00786,-2.33395 l -2.41331,-1.47943 -2.94698,-0.12157 c -0.42455,-0.0164 -0.82299,-0.0261 -1.19905,-0.0294 z m 1.0167,2.06375 c 0.6492,0.0359 1.26242,0.20066 2.35415,0.54551 4.26639,1.34771 5.77337,3.21038 6.19798,7.66218 0.23041,2.41696 0.19609,2.91799 -0.31895,4.61385 -1.07775,3.54808 -3.5758,6.19923 -6.65906,7.06432 -4.20286,1.17925 -8.2963003,-0.30589 -10.5821513,-3.837 -1.5176,-2.34439 -2.02242,-4.19407 -1.999579,-7.34469 0.0164,-2.26444 0.11831,-2.82158 0.736369,-4.02276 0.593941,-1.15425 1.061891,-1.60093 2.72406,-2.59233 2.3138913,-1.3802 2.9719813,-1.60485 5.7267713,-1.96411 0.45093,-0.0588 0.81564,-0.10033 1.13996,-0.11994 0.24315,-0.0131 0.46417,-0.0164 0.68061,-0.007 z m 45.510309,6.21319 c 0.10099,0 0.23792,0.76659 0.30557,1.70233 0.0974,1.34426 0.25556,1.8074 0.75155,2.20896 0.47783,0.38697 0.75332,0.44134 1.15513,0.22614 0.43028,-0.23006 0.52894,-0.60136 0.53871,-2.00293 0.01,-1.69756 0.0164,-1.70914 0.43234,-0.94238 0.2317,0.4272 0.50998,1.29902 0.61815,1.93709 0.16537,0.97652 0.30818,1.17297 0.90522,1.24296 0.95428,0.11177 1.3003,-0.38608 1.40848,-2.02659 l 0.0912,-1.37638 0.49822,1.58581 c 0.27419,0.87224 0.58315,1.63622 0.68734,1.69726 0.36896,0.21634 1.43553,-0.36589 1.43553,-0.78362 0,-0.59737 0.36256,-0.52795 1.02343,0.19772 1.07238,1.17755 1.26925,1.9196 1.29866,4.89929 0.0261,2.59959 -0.0494,3.08457 -0.6907,4.45173 -0.96143,2.0498 -2.2518,3.46712 -3.95858,4.34532 h -0.002 c -1.14699,0.59015 -1.86969,0.74133 -3.89779,0.81571 -2.66811,0.0977 -3.59801,-0.12713 -5.74706,-1.38654 -1.59066,-0.93219 -2.87678,-2.4104 -3.74406,-4.3048 -1.02159,-2.23412 -1.00708,-5.43659 0.0337,-7.56424 0.77916,-1.59242 2.17787,-3.52493 2.81357,-3.88425 0.28106,-0.15883 0.36681,0.1183 0.37664,1.19905 0.0131,1.64338 0.41091,2.24996 1.40001,2.13467 0.62188,-0.0725 0.73627,-0.25001 0.89676,-1.38144 0.17582,-1.23779 0.97915,-2.99091 1.36965,-2.99091 z m -44.620319,2.57542 c -0.23007,0.003 -0.47358,0.11537 -0.72113,0.33946 -0.60172,0.54462 -0.69123,1.27174 -0.25687,2.08402 0.4219,0.78822 1.58939,0.69528 1.9776,-0.1572 0.23661,-0.51867 0.23564,-0.86538 -0.003,-1.38991 -0.26668,-0.58547 -0.61306,-0.88231 -0.99637,-0.87649 z m -3.43337,0.0337 c -0.16242,0.0261 -0.32256,0.15883 -0.58262,0.41883 -0.6127,0.61303 -0.60793,1.65303 0.01,2.39811 0.35278,0.42518 1.33807,0.26635 1.7074,-0.27517 0.38789,-0.56888 0.0778,-1.8978 -0.53707,-2.30356 -0.27092,-0.17876 -0.43535,-0.26308 -0.59783,-0.23825 z m 7.90202,3.74409 c -0.41962,-0.0327 -0.90522,0.34609 -1.20924,1.22778 -0.48933,1.419 -0.72323,1.67064 -2.19543,2.36269 -1.72286,0.80989 -4.13048,0.82025 -5.77578,0.0229 -0.9348,-0.45246 -1.4823,-0.9899 -2.149931,-2.10598 -0.8893093,-1.48693 -1.4568093,-1.8026 -2.0940493,-1.16526 -0.50704,0.50698 -0.4001,1.3021 0.34622,2.57544 0.812079,1.38592 2.2888003,2.56743 3.8504703,3.08041 1.54328,0.50698 5.56101,0.33328 6.77052,-0.29216 1.58381,-0.81911 3.01019,-2.47304 3.22392,-3.73906 0.20327,-1.20386 -0.22746,-1.92529 -0.7667,-1.96748 z m 40.129709,0.31766 c -0.47887,0.0745 -0.83597,0.621 -0.83597,1.49292 0,0.47175 0.15,1.0063 0.33272,1.18892 0.18269,0.18269 0.53168,0.33269 0.77519,0.33269 1.07091,0 1.52373,-1.75767 0.67211,-2.60923 -0.32485,-0.32484 -0.65672,-0.45011 -0.94405,-0.4053 z m 3.38945,0.16209 c -0.1657,-9.6e-4 -0.36146,0.0164 -0.59786,0.0507 -0.41038,0.0576 -0.60198,1.33341 -0.31407,2.09075 0.19282,0.50688 0.47315,0.71101 0.97624,0.71101 0.96212,0 1.46396,-1.21657 0.91362,-2.21405 -0.25294,-0.45839 -0.48076,-0.6349 -0.97787,-0.63839 z m -7.7398,3.69347 c -0.23661,0.0402 -0.41746,0.26537 -0.52195,0.68058 -0.25882,1.0316 0.0294,1.82198 1.14847,3.1277 1.17899,1.37739 2.21444,1.96796 3.96871,2.26471 2.0511,0.34693 3.11777,0.29314 4.64088,-0.23301 2.93012,-1.01252 4.61955,-2.77158 4.46526,-4.64932 -0.0762,-0.92457 -0.18431,-1.07477 -0.83767,-1.1501 -0.62655,-0.0722 -0.78296,0.0415 -0.93559,0.69074 -0.4817,2.04757 -3.12675,3.55706 -5.88725,3.35735 -2.02055,-0.14608 -3.30643,-0.94384 -4.49898,-2.78654 -0.59888,-0.92523 -1.14778,-1.3692 -1.54188,-1.30207 z m -41.100839,9.29697 c 1.39527,-0.0131 2.49945,0.0395 2.69703,0.14183 0.26341,0.13628 0.95493,1.24367 1.53678,2.46063 0.99869,2.08862 1.03088,2.2364 0.57597,2.64809 -0.63839,0.57755 -0.96187,0.33324 -1.15861,-0.87991 -0.18628,-1.1484 -0.62314,-1.78168 -1.23283,-1.78168 -0.37822,0 -0.37933,0.0526 -0.007,0.48468 0.38165,0.4427 0.66682,1.60872 1.34092,5.46503 0.13301,0.76091 0.44782,2.44726 0.69917,3.7475 0.25131,1.3002 0.41162,2.59141 0.35635,2.86929 -0.0592,0.29838 -0.60901,0.7044 -1.34432,0.99134 h -0.002 c -2.01652,0.78691 -5.99534,0.70599 -8.57759,-0.17386 -2.4361203,-0.8302 -2.8618203,-1.2504 -2.6294903,-2.59233 0.24445,-1.4118 1.4823303,-5.19927 2.0857103,-6.38205 0.56773,-1.11285 1.65142,-3.86917 1.65168,-4.20178 0,-0.11406 -0.13171,-0.20786 -0.29216,-0.20786 -0.16047,0 -0.6057,0.68637 -0.98964,1.52498 -0.44115,0.96336 -0.81859,1.45789 -1.02343,1.34263 -0.6845603,-0.38524 -1.5689303,-1.31803 -1.5689303,-1.65505 0,-0.19379 0.61358,-1.08905 1.36288,-1.98944 l 1.3611803,-1.63816 3.68837,-0.1402 c 0.50705,-0.0197 1.00421,-0.0294 1.46933,-0.0337 z m 23.239801,0.40193 c 0.0415,-0.007 0.0984,0.003 0.168968,0.0261 0.208503,0.0696 0.65645,0.8433 0.996442,1.72093 0.3399,0.87761 0.769808,1.77758 0.95417,1.99958 0.48351,0.5826 1.41909,0.3506 1.823929,-0.45263 0.22289,-0.4417 0.35048,-0.53024 0.352959,-0.24479 0,0.51825 1.03029,1.905 1.408473,1.905 0.141179,0 0.504557,-0.24969 0.808908,-0.55395 l 0.55391,-0.5539 v 2.44034 c 0,3.38058 -0.525021,4.99079 -2.067089,6.34828 -0.674431,0.59361 -1.8688,1.28801 -2.654811,1.54188 -1.34874,0.4356 -3.87668,0.56478 -5.100208,0.26013 -1.275991,-0.31765 -2.916362,-1.56474 -3.734002,-2.8389 -1.94923,-3.03759 -2.077219,-7.36293 -0.28694,-9.68875 l 0.53199,-0.69072 -0.10654,1.30545 c -0.12877,1.5905 0.471609,2.52416 1.45066,2.25795 0.342519,-0.0931 0.62302,-0.31046 0.623181,-0.48299 1.01e-4,-0.17255 0.395409,-1.12354 0.879898,-2.1127 0.746721,-1.52476 0.897271,-1.69264 0.984502,-1.10618 0.23073,1.55266 0.667959,2.42009 1.383239,2.74598 0.638389,0.29087 0.79411,0.26896 1.119679,-0.16536 0.369131,-0.49259 0.330732,-1.62243 -0.106539,-3.10235 -0.108829,-0.36908 -0.11275,-0.53762 0.0164,-0.55899 z m 23.113248,2.7494 c 0.27386,-0.007 0.54639,-0.003 0.81564,0.007 0.71819,0.0327 1.40883,0.12679 2.01313,0.29379 1.25837,0.34765 3.07626,2.08034 3.35738,3.20031 0.13334,0.53212 0.0467,0.82695 -0.32582,1.09941 -0.75669,0.55335 -0.91326,0.46794 -1.11458,-0.60459 -0.19706,-1.05073 -0.90237,-1.62105 -1.64998,-1.33415 -0.36602,0.14053 -0.42619,0.39027 -0.28726,1.17542 0.23236,1.30952 0.69616,7.01053 0.70594,8.64847 0.007,1.19643 -0.0576,1.30875 -0.86634,1.59086 -1.94247,0.67624 -5.53571,0.12614 -5.93278,-0.9086 -0.0853,-0.22256 0.10458,-1.65159 0.4205,-3.17667 0.68998,-3.33004 0.73885,-5.49175 0.14347,-6.34151 -0.57511,-0.82114 -1.44151,-0.78397 -1.83407,0.0778 -0.36266,0.79604 -0.64989,0.87187 -0.99137,0.26178 -0.41211,-0.73638 -0.0376,-2.03379 0.78868,-2.72917 0.8933,-0.75162 2.84133,-1.21702 4.75746,-1.25984 z m -21.615259,2.48255 c -0.606489,0 -0.8729,0.17093 -1.07065,0.69074 -0.295431,0.77718 0.02611,1.93238 0.604592,2.16336 0.200009,0.08 0.402859,0.15524 0.450929,0.16732 0.0483,0.0131 0.328729,-0.10751 0.62316,-0.26503 0.33922,-0.18137 0.533609,-0.5787 0.533609,-1.08421 0,-1.28292 -0.265049,-1.67195 -1.14164,-1.67195 z m -3.283,0.0196 c -0.161439,-0.001 -0.32648,0.047 -0.486389,0.14706 -0.582531,0.36468 -0.79084,1.92516 -0.331081,2.47918 0.832929,1.00363 2.312151,-0.11111 1.948971,-1.46925 -0.19249,-0.7195 -0.6471,-1.15399 -1.131501,-1.15686 z m -3.50265,3.60902 c -0.233659,-0.007 -0.430339,0.11732 -0.62992,0.35802 -0.249679,0.30099 -0.233021,0.60266 0.0676,1.31393 0.52632,1.24405 1.29232,1.8774 3.02463,2.49604 2.939399,1.04974 6.5029,0.1974 7.49165,-1.79181 0.94673,-1.9044 -0.284972,-2.96848 -1.513181,-1.30716 -0.848159,1.14722 -2.625069,1.78401 -4.28457,1.53514 -1.04875,-0.15719 -1.537229,-0.4357 -2.490949,-1.41694 -0.781492,-0.80413 -1.27559,-1.17656 -1.665211,-1.18722 z m -27.0278613,2.83047 c 0.0601,0.0605 -0.102289,0.87289 -0.361439,1.80534 -0.42921,1.54363 -0.93393,2.25568 -0.93393,1.31726 0,-0.49022 1.151579,-3.26637 1.295369,-3.1226 z m 23.8613303,1.56383 c 0.0987,0 1.283891,0.74701 2.63452,1.66011 1.350592,0.9131 2.561842,1.66012 2.691982,1.66012 0.130059,0 0.236599,0.18726 0.236599,0.41544 0,0.22843 -0.169289,0.41546 -0.374939,0.41546 -0.676,0 -3.58321,-0.17778 -4.446672,0.45596 -0.388869,0.3757 -0.657069,0.72303 -0.827498,1.04539 -0.282691,0.0909 -0.630081,0.0614 -1.19739,-0.0624 -0.54139,-0.11897 -0.90179,-0.33247 -1.474391,-0.94069 0.51779,-0.11406 1.010489,-0.34523 1.440561,-0.72956 0.742778,-0.66355 0.89807,-1.02281 1.0082,-2.35085 0.0718,-0.86257 0.210789,-1.5689 0.309158,-1.5689 z m 15.052461,1.1653 c 0.142812,0.0359 0.191511,0.2866 0.292161,0.78868 0.207201,1.03545 1.49315,2.37598 2.529819,2.63622 0.0196,0.003 0.0359,0.007 0.0539,0.01 -0.007,0.007 -0.0131,0.01 -0.0164,0.0164 -0.502529,0.58377 -1.062768,0.86947 -2.332289,1.18556 -0.72104,0.17974 -1.39817,0.26406 -1.766419,0.24314 -0.02609,-0.21439 -0.0575,-0.40191 -0.102952,-0.50328 -0.527558,-1.17843 -2.80302,-0.46884 -4.46182,-0.99304 -1.22396,-0.38671 -1.56378,-0.95074 -0.43743,-0.95924 1.021011,-0.007 4.43993,-1.23278 5.37887,-1.92695 0.48119,-0.35573 0.720022,-0.5342 0.863039,-0.49818 z m -37.3245903,2.47241 c 0.200329,5.3e-4 0.417559,0.099 0.54376,0.26013 0.9207193,1.17665 6.3310103,1.72203 9.3965503,0.94746 1.73799,-0.43913 1.93375,-0.4425 2.33902,-0.0372 0.61159,0.61115 0.79662,5.17116 0.31407,7.72803 -0.33525,1.77662 -0.43253,1.95123 -1.27171,2.30185 -0.49969,0.20884 -1.65913,0.37999 -2.57717,0.37999 h -1.66847 v -2.72577 c 0,-3.09028 -0.34744,-4.46859 -1.12478,-4.46859 -0.88152,0 -1.13539,0.97444 -1.05888,4.05486 0.0569,2.28156 -0.0131,2.95907 -0.32419,3.1564 h -0.002 c -0.66721,0.42219 -3.10205,0.28986 -4.1258103,-0.22453 -0.52962,-0.26602 -1.25862,-0.91972 -1.61955,-1.45238 -0.59766,-0.88216 -0.64365,-1.17785 -0.51845,-3.32024 0.17615,-3.01822 0.94006,-6.34877 1.50642,-6.56612 0.0589,-0.0229 0.12418,-0.034 0.19085,-0.0337 z m 28.2488713,2.19039 c 1.77492,-0.0357 4.078679,0.27976 5.441339,0.53705 0.95509,-0.10001 1.17915,0.7108 1.087641,1.46086 a 3.6879202,5.8392068 49.937426 0 0 -0.290531,0.72786 c 0.02611,-0.0343 0.0795,-0.0654 0.13334,-0.0964 -0.147389,0.38561 -1.054119,0.78678 -1.49969,0.52354 -1.037609,-0.24445 -2.192841,-0.29217 -2.39811,0.52524 -0.0902,0.3589 -0.0294,1.61263 0.13334,2.78655 0.163081,1.17389 0.297399,2.18781 0.297399,2.25288 0,0.1477 -1.407009,0.0879 -3.04333,-0.13007 l -1.246328,-0.16537 v -2.62953 c 0,-2.6265 5.3e-4,-2.62754 -0.69071,-2.60075 -0.380442,0.0164 -1.42756,0.0889 -1.69391,0.20426 -0.388152,0.16863 -0.645121,-2.22448 -0.645121,-2.77982 0,-0.91127 1.868821,-0.41452 3.690081,-0.57927 0.227779,-0.0196 0.470929,-0.0327 0.724519,-0.0372 z m 22.392068,0.0356 c 0.0565,-0.01 0.12975,-0.007 0.22126,0.01 0.1219,0.0196 0.27876,0.0575 0.47965,0.11144 0.49459,0.13302 2.09183,0.23825 3.54991,0.23466 l 2.65144,-0.007 0.33949,2.7156 c 0.18628,1.49388 0.56453,3.60668 0.84097,4.69495 0.50184,1.97627 0.50195,1.97875 -0.0843,2.46905 -0.32289,0.26994 -0.96213,0.61234 -1.41867,0.75996 -1.78669,0.57769 -3.5388,0.5394 -6.73497,-0.14347 -1.86649,-0.39886 -2.01774,-0.48253 -1.86279,-1.03189 0.34543,-1.22442 1.81884,-8.80999 1.81884,-9.36282 0,-0.28824 0.0294,-0.42462 0.19935,-0.45093 z m -23.901878,11.08205 c 0.16928,0.01 0.391189,0.0421 0.68567,0.0862 0.652338,0.0977 1.870049,0.20293 2.7055,0.233 1.327719,0.0481 1.715241,0.20589 3.077059,1.25648 1.487061,1.14724 1.53556,1.22595 1.089199,1.71922 -0.257198,0.28432 -1.092409,0.70209 -1.856028,0.92887 -1.999731,0.59386 -4.75017,0.5248 -6.257041,-0.15884 -0.679199,-0.30817 -1.284899,-0.61115 -1.345949,-0.67215 -0.0614,-0.0611 0.148368,-0.4405 0.466048,-0.8444 0.317661,-0.4039 0.658191,-1.16333 0.756602,-1.68713 0.133009,-0.70967 0.170908,-0.89007 0.67894,-0.86131 z m 8.63491,9.15004 c 0.260469,0.007 0.502309,0.12026 0.668819,0.34788 0.289549,0.39799 0.29347,0.54708 0.0196,0.72114 -0.19118,0.12058 -0.754009,0.22222 -1.253109,0.22451 -0.813062,0.003 -0.879012,-0.052 -0.623152,-0.53029 0.268301,-0.50138 0.752923,-0.77668 1.187191,-0.76334 z m -20.232041,0.19085 c 1.2601,0 0.0294,2.25687 -1.60103,2.93855 -0.5022,0.20981 -0.98339,0.38164 -1.06898,0.38164 -0.2706,0 -0.48061,-0.81352 -0.31929,-1.23451 0.2219,-0.57841 2.38245,-2.08568 2.98927,-2.08568 z m -20.1712303,0.01 c 0.418479,-0.0718 1.211929,0.24313 2.14473,0.98457 0.68483,0.54433 1.23233,1.10395 1.21599,1.24297 -0.0164,0.13889 -0.0465,0.37638 -0.0693,0.5286 -0.11536,0.76971 -2.35425,-0.22679 -3.19023,-1.42028 -0.56367,-0.80481 -0.51974,-1.26408 -0.10131,-1.33586 z m 66.8519093,1.09605 h 0.002 c 0.69286,0 0.67921,1.00083 -0.0196,1.37466 -0.66522,0.35591 -1.95565,0.3745 -1.95565,0.0294 0,-0.4051 1.40442,-1.40341 1.97424,-1.40341 z m -38.01533,0.0164 c 0.381511,5.2e-4 0.793351,0.13333 1.136531,0.39857 0.531619,0.41087 0.531619,0.41838 0,0.82921 -1.177941,0.91022 -2.949559,0.20425 -2.089049,-0.83257 0.219289,-0.26406 0.570939,-0.39586 0.952518,-0.39521 z m 22.64198,0.80728 c 0.43743,0.0196 1.12807,0.24281 1.70237,0.59783 0.71345,0.44096 0.86218,0.6507 0.58599,0.82584 -0.65818,0.41716 -1.50503,0.2572 -2.12113,-0.39858 -0.33109,-0.3522 -0.6012,-0.7249 -0.6012,-0.8292 0,-0.14837 0.17157,-0.20818 0.43397,-0.19576 z"
       id="path1765"
       inkscape:connector-curvature="0" />
  </g>
</svg>
