<!-- Created with Inkscape (http://www.inkscape.org/) -->
<svg width="300" height="300" version="1.1" viewBox="0 0 79.375 79.375" xmlns="http://www.w3.org/2000/svg">
 <g transform="translate(0 -217.62)">
  <path d="m15.457 221.25c-2.6325-0.0228-4.1952 0.33129-6.3314 1.346-2.1651 1.0285-3.847 2.5962-4.8283 4.5007-0.63136 1.225-0.77247 1.9072-0.87314 4.2052-0.1402 3.2048 0.20883 5.097 1.4068 7.6334 1.461 3.0932 4.8099 5.8604 7.5964 6.2757 1.1807 0.17582 1.7402 0.70378 1.5436 1.4558-0.0954 0.36413-0.38505 0.5074-1.0083 0.49988-0.48102-7e-3 -1.1242 7e-3 -1.4287 0.0294-0.60571 0.0434-3.9812 3.1522-5.2421 4.8267l-0.79038 1.0488 0.8715 0.90011c0.47981 0.49506 0.87306 1.0522 0.87306 1.2379 0 0.18562-0.62708 1.5874-1.3932 3.1142-0.76619 1.5268-1.6477 3.4224-1.959 4.2136-0.33077 0.83998-0.96091 1.7648-1.5132 2.2208-1.1104 0.91676-1.1841 1.5389-0.30393 2.562 0.52969 0.61577 0.88593 0.75168 2.0384 0.77685l1.3967 0.0294-0.13694 4.4754c-0.12811 4.1966-0.1 4.5328 0.44583 5.416 0.32616 0.52753 1.2045 1.2824 1.9978 1.7142l1.4169 0.77008-0.17549 2.2512c-0.0961 1.2382-0.24674 3.1854-0.33439 4.3268-0.0876 1.1414-0.1817 2.1025-0.21112 2.1363-0.0294 0.0337-0.5023-0.30818-1.0504-0.75996-0.57325-0.47249-1.7179-1.0065-2.6937-1.2565-1.5947-0.40852-1.75-0.40426-2.5636 0.0709-1.1133 0.65028-1.4469 1.6459-1.0488 3.1243 0.33844 1.257 1.8787 3.1387 3.0787 3.7593 1.8644 0.96407 5.6317 0.0869 6.4429-1.4996 0.23596-0.46192 0.43979-2.2654 0.55054-4.8824 0.0967-2.2828 0.24838-4.7197 0.33782-5.4144l0.1621-1.2632 2.2698-0.32766c1.2476-0.1804 2.4093-0.32763 2.5822-0.32763 0.40786 0 0.56913 1.4183 0.73973 6.502 0.16438 4.9007 0.5942 6.5449 1.9252 7.3565 1.5979 0.97436 4.0957 0.56777 5.6441-0.91871 1.1775-1.1307 1.9996-2.6965 1.9996-3.81 0-1.0661-1.0669-2.196-2.1314-2.2563-1.4251-0.0807-1.8532 0.0539-3.256 1.02-0.76757 0.52863-1.4569 0.96095-1.5318 0.96095-0.0745 0-0.14379-0.34317-0.15359-0.76165-0.01-0.41851-0.11831-2.4486-0.24152-4.5109l-0.22451-3.7492 1.6871-0.46949c1.1074-0.30785 1.8249-0.68364 2.0857-1.0927 0.40899-0.64182 1.0816-8.5525 0.81401-9.5756-0.0543-0.20655-0.037-0.33935 0.10457-0.43739 0.24413 0.22059 0.57934 0.36517 1.015 0.38167 0.39603 0.0164 1.5332 0.39128 2.5248 0.83764 0.99169 0.44631 2.4141 0.91689 3.1632 1.0471 0.11634 0.0196 0.23236 0.05 0.34791 0.0794 0.21798 1.1442 0.7796 2.3478 1.9607 2.817 0.66574 0.12713 0.99873 0.10067 0.74477 2.9335-0.18302 2.4413-0.46112 3.0846-1.7125 3.9586-0.49495 0.34567-0.99549 0.7592-1.1112 0.91872-0.55627 0.76725 0.8191 3.0344 2.4538 4.0447 0.7712 0.47658 0.93895 0.74814 0.93895 1.525 0 0.92103-0.0294 0.94575-1.1197 0.94575-2.1743 0-3.8607 1.4744-3.8607 3.3759 0 1.4189 0.39681 2.1171 1.4727 2.5856 1.7285 0.75111 3.9054 0.30133 5.0343-1.0403 0.69656-0.82783 0.72953-1.0032 0.64011-3.381l-0.0964-2.5079 1.314-0.0844c1.2119-0.0778 1.316-0.0339 1.3173 0.55394 0.01 2.7623 2.1787 5.1587 4.754 5.2438 1.7728 0.0585 2.1932-0.0464 2.866-0.71947 1.2221-1.2219 0.54581-3.9449-1.1383-4.5851-0.94526-0.35942-2.5116-0.34213-3.2172 0.0353-0.43106 0.23072-0.62398 0.21994-0.78705-0.0438-0.34475-0.55776-0.0647-0.91486 1.27-1.623 1.7506-0.92871 2.8912-2.2995 2.8912-3.4739 0.1755-0.90143-0.33488-1.3757-1.0352-1.6685-1.6977-0.8863-1.9748-2.4524-2.5603-4.3842-0.71172-2.3482 0.16569-2.6999 0.73127-2.6802 1.2808-0.91801 2.1967-0.53123 2.2462-1.4591 0.0294-0.0738 0.0546-0.55603 0.0709-1.118 1.3201-0.067 3.3162-0.51175 4.2424-0.97444 0.36782-0.18367 1.0264-0.22942 1.4642-0.0981 0.56247 0.16864 1.0587 0.0327 1.4271-0.2719 0.78666 0.47916 1.7454 0.40779 2.5687-0.23987 0.90237-0.7099 0.95727-1.8288 0.1402-2.8676-0.58417-0.74283-0.58443-0.76456-0.0977-2.5974 0.76169-2.8689 1.5222-4.7524 1.9184-4.7524 0.1987 0 0.52512 0.19706 0.72617 0.4391 0.30393 0.36625 0.25883 1.3517-0.26504 5.8805-0.69496 6.0056-1.1092 8.214-2.1736 11.558-0.39256 1.2342-0.63397 2.4535-0.53531 2.7105 0.0987 0.25719 0.8831 0.77829 1.7429 1.1586l1.5622 0.6924-0.17582 1.6872c-0.0971 0.92806-0.17843 2.5719-0.18073 3.6529-7e-3 2.531-0.11601 2.6968-1.5385 2.3171-1.5543-0.41485-2.4875-0.12354-2.8389 0.88492-0.50488 1.4482 0.16896 2.958 1.753 3.9265h2e-3c1.5709 0.96043 4.3284 0.4426 5.2657-0.98797 0.41269-0.62979 0.42662-0.91382 0.12321-2.4437-0.24805-1.2511-0.27583-2.6135-0.0997-4.9128l0.24478-3.1818 2.2124 0.0911c1.2176 0.051 2.2486 0.12779 2.2901 0.16897 0.0415 0.0412 0.1474 1.431 0.23466 3.0889 0.18791 3.5628 0.7557 6.0931 1.5621 6.9596 1.2498 1.343 4.2463 1.4175 5.7623 0.14183 1.1382-0.95888 1.1278-2.4768-0.0294-3.6326-1.0185-1.0185-1.7252-1.1521-3.2392-0.61642-0.6414 0.2268-1.2209 0.35596-1.2869 0.28726-0.066-0.0689-0.21046-1.7048-0.31929-3.636l-0.19772-3.5127 1.6145-1.0538c0.88794-0.57976 1.7191-1.128 1.8476-1.2194 0.12844-0.0911 0.0294-0.95055-0.21765-1.9084-0.85577-3.3027-1.8135-9.5189-1.9168-12.435-0.0569-1.6081-0.19314-3.5133-0.30393-4.2338-0.18628-1.213-0.15328-1.3282 0.45606-1.5571 0.43896-0.16504 0.71757-0.1425 0.83594 0.066 0.0974 0.17158 0.44844 1.8907 0.78022 3.8201 0.55426 3.2229 0.56792 3.5617 0.16732 4.1731-0.79593 1.2147 0.47159 3.2476 2.0249 3.2476 0.9743 0 1.3849-0.31014 1.7108-1.297 0.2791-0.84614 0.2487-1.0697-0.23138-1.7192-0.32125-0.43468-0.63096-1.4347-0.73975-2.3931-0.22093-1.9454-0.8032-4.3278-1.4203-5.8045-0.25654-0.61305-0.37622-1.3967-0.28367-1.8594 0.20099-1.0053-0.30196-1.9978-2.2613-4.4534-1.5444-1.9357-2.7168-2.6906-4.2507-2.7342-0.62698-0.0164-0.79205-0.14903-0.79205-0.63499 0-0.54714 0.18595-0.63603 1.7141-0.80895 1.4473-0.16373 2.4973-0.49874 5.411-1.7277 0.22648-0.0954 0.34622 0.10686 0.34622 0.58433 0 2.8006 2.7266 4.7338 5.0935 3.6107 1.2986-0.6162 1.876-1.7248 1.7682-3.3945-0.10882-1.6852-0.82064-1.9099-1.8914-0.59786-0.76663 0.93923-1.373 0.92652-1.373-0.0294 0-0.29543 0.26373-0.80267 0.58773-1.1264 0.50929-0.50929 0.56929-0.80763 0.44083-2.2225-0.0813-0.8994-0.29706-1.8137-0.47792-2.0316-0.26047-0.31407-0.20818-0.55042 0.25164-1.1349 0.75737-0.96359 0.74682-2.3972-0.0294-3.4452l-0.60969-0.82415 0.51508-1.5165c0.59818-1.7597 0.3586-2.6905-0.83084-3.2324-0.63019-0.28726-0.69107-0.44035-0.54044-1.3325 0.16307-0.96525 0.0971-1.0703-1.5757-2.5231-2.4235-2.1046-3.299-2.676-4.9855-3.2544-1.4916-0.51152-2.5927-0.73817-3.9637-0.7228h-2e-3c-0.82264 0.01-1.7416 0.10588-2.9031 0.2804-3.5534 0.5337-5.3389 1.3227-7.3987 3.2696-0.87039 0.8226-1.8616 1.6416-2.2023 1.8188-0.80156 0.41697-1.0565 1.478-0.61306 2.5484 0.32486 0.78423 0.29577 0.89434-0.36144 1.4473-1.0604 0.89202-1.1729 1.6618-0.43733 2.9706 0.61322 1.0913 0.619 1.1543 0.15686 1.959-0.70296 1.225-0.59073 1.9837 0.48639 3.2729 0.92721 1.1098 0.94925 1.1847 0.55391 1.9489-0.55322 1.07-0.51914 1.7431 0.16046 3.0753 0.31504 0.61744 0.50308 1.1925 0.41713 1.2784-0.0859 0.086-0.65014-7e-3 -1.2548-0.20589-0.8902-0.2938-1.1798-0.29674-1.5233-0.0131-1.0514 0.87257-0.0718 3.0414 1.7107 3.7864 1.9473 0.81362 3.9247-0.25197 4.5126-2.4319 0.63149-2.3416 0.59309-2.2991 1.4676-1.6112 0.93704 0.73721 3.2579 1.6483 4.2001 1.6483 0.55018 0 0.68904 0.13825 0.68904 0.69071 0 0.65972-0.0755 0.69244-1.6297 0.69244-1.387 0-1.824 0.13334-2.9335 0.89842-1.4611 1.0078-2.6312 2.8988-2.6312 4.2525 0 0.47855-0.30525 1.5386-0.67885 2.3559-0.37295 0.81588-0.98348 2.6635-1.5385 4.5412-0.26503-0.0807-0.6455 0.17582-1.1755 0.78362-0.61202 0.70162-1.0833 1.0138-1.3663 0.90522-0.61669-0.23661-0.83673-0.99709-0.46266-1.596 0.40743-0.65218 0.40984-1.7001 0.01-2.1026-0.23008-0.22975-0.16766-0.51577 0.23464-1.0944 0.43259-0.62129 0.54414-1.2499 0.55054-3.0602 0-1.5798-0.10818-2.3746-0.36645-2.589-0.2657-0.22027-0.29413-0.45522-0.10131-0.81568 0.47574-0.88895 0.29641-1.4743-0.76672-2.5028-0.57067-0.55211-1.5076-1.5756-2.0823-2.2748-1.6628-2.0229-4.9944-3.3645-8.1958-3.452-0.73877-0.0196-1.4706 0.0261-2.1736 0.14706-3.5728 0.61198-5.7506 2.127-7.679 5.3434-1.3178 2.1979-1.314 2.1904-0.95587 3.0551 0.28497 0.68822 0.26733 0.89503-0.11308 1.3156-0.49969 0.55221-0.60492 1.9888-0.17713 2.4167 0.18138 0.18138 0.16112 0.57218-0.0575 1.1518-0.27681 0.73382-0.25099 1.0413 0.1536 1.8898 0.45449 0.95019 0.45423 1.0466 0.01961 1.5284-0.35658 0.394-0.42534 0.80662-0.2938 1.7648 0.19968 1.4569-0.0164 1.5477-1.3156 0.55731-0.20033-0.15295-0.37628-0.27387-0.53877-0.37658-0.33766-0.84333-0.72884-1.9618-1.1433-3.2831l-1.3224-4.2136 0.86632-0.98457 0.86467-0.98627-1.5064-2.8254c-0.82819-1.554-1.8554-3.2416-2.2833-3.7509-0.73483-0.87453-0.88898-0.93083-2.7849-1.0049-1.104-0.0432-2.0071-0.15556-2.0063-0.25001 6.87e-4 -0.0944 3e-3 -0.40445 3e-3 -0.68903 0-0.40773 0.26145-0.54672 1.2396-0.65695 3.8205-0.43063 7.627-4.0044 8.9998-8.4492 0.78211-2.5317 0.77077-6.9534-0.0261-8.971-0.31668-0.80316-0.66597-1.5235-0.77519-1.601-0.10915-0.0775-0.46622-0.52535-0.79368-0.99471-0.32753-0.46939-1.6806-1.5201-3.0079-2.334l-2.4133-1.4794-2.947-0.12157c-0.42455-0.0164-0.82299-0.0261-1.199-0.0294zm1.0167 2.0638c0.6492 0.0359 1.2624 0.20066 2.3542 0.54551 4.2664 1.3477 5.7734 3.2104 6.198 7.6622 0.23041 2.417 0.19609 2.918-0.31895 4.6138-1.0778 3.5481-3.5758 6.1992-6.6591 7.0643-4.2029 1.1792-8.2963-0.30589-10.582-3.837-1.5176-2.3444-2.0224-4.1941-1.9996-7.3447 0.0164-2.2644 0.11831-2.8216 0.73637-4.0228 0.59394-1.1542 1.0619-1.6009 2.7241-2.5923 2.3139-1.3802 2.972-1.6048 5.7268-1.9641 0.45093-0.0588 0.81564-0.10033 1.14-0.11994 0.24315-0.0131 0.46417-0.0164 0.68061-7e-3zm45.51 6.2132c0.10099 0 0.23792 0.76659 0.30557 1.7023 0.0974 1.3443 0.25556 1.8074 0.75155 2.209 0.47783 0.38697 0.75332 0.44134 1.1551 0.22614 0.43028-0.23006 0.52894-0.60136 0.53871-2.0029 0.01-1.6976 0.0164-1.7091 0.43234-0.94238 0.2317 0.4272 0.50998 1.299 0.61815 1.9371 0.16537 0.97652 0.30818 1.173 0.90522 1.243 0.95428 0.11177 1.3003-0.38608 1.4085-2.0266l0.0912-1.3764 0.49822 1.5858c0.27419 0.87224 0.58315 1.6362 0.68734 1.6973 0.36896 0.21634 1.4355-0.36589 1.4355-0.78362 0-0.59737 0.36256-0.52795 1.0234 0.19772 1.0724 1.1776 1.2692 1.9196 1.2987 4.8993 0.0261 2.5996-0.0494 3.0846-0.6907 4.4517-0.96143 2.0498-2.2518 3.4671-3.9586 4.3453h-2e-3c-1.147 0.59015-1.8697 0.74133-3.8978 0.81571-2.6681 0.0977-3.598-0.12713-5.7471-1.3865-1.5907-0.93219-2.8768-2.4104-3.7441-4.3048-1.0216-2.2341-1.0071-5.4366 0.0337-7.5642 0.77916-1.5924 2.1779-3.5249 2.8136-3.8842 0.28106-0.15883 0.36681 0.1183 0.37664 1.199 0.0131 1.6434 0.41091 2.25 1.4 2.1347 0.62188-0.0725 0.73627-0.25001 0.89676-1.3814 0.17582-1.2378 0.97915-2.9909 1.3696-2.9909zm-44.62 2.5754c-0.23007 3e-3 -0.47358 0.11537-0.72113 0.33946-0.60172 0.54462-0.69123 1.2717-0.25687 2.084 0.4219 0.78822 1.5894 0.69528 1.9776-0.1572 0.23661-0.51867 0.23564-0.86538-3e-3 -1.3899-0.26668-0.58547-0.61306-0.88231-0.99637-0.87649zm-3.4334 0.0337c-0.16242 0.0261-0.32256 0.15883-0.58262 0.41883-0.6127 0.61303-0.60793 1.653 0.01 2.3981 0.35278 0.42518 1.3381 0.26635 1.7074-0.27517 0.38789-0.56888 0.0778-1.8978-0.53707-2.3036-0.27092-0.17876-0.43535-0.26308-0.59783-0.23825zm7.902 3.7441c-0.41962-0.0327-0.90522 0.34609-1.2092 1.2278-0.48933 1.419-0.72323 1.6706-2.1954 2.3627-1.7229 0.80989-4.1305 0.82025-5.7758 0.0229-0.9348-0.45246-1.4823-0.9899-2.1499-2.106-0.88931-1.4869-1.4568-1.8026-2.094-1.1653-0.50704 0.50698-0.4001 1.3021 0.34622 2.5754 0.81208 1.3859 2.2888 2.5674 3.8505 3.0804 1.5433 0.50698 5.561 0.33328 6.7705-0.29216 1.5838-0.81911 3.0102-2.473 3.2239-3.7391 0.20327-1.2039-0.22746-1.9253-0.7667-1.9675zm40.13 0.31766c-0.47887 0.0745-0.83597 0.621-0.83597 1.4929 0 0.47175 0.15 1.0063 0.33272 1.1889 0.18269 0.18269 0.53168 0.33269 0.77519 0.33269 1.0709 0 1.5237-1.7577 0.67211-2.6092-0.32485-0.32484-0.65672-0.45011-0.94405-0.4053zm3.3894 0.16209c-0.1657-9.6e-4 -0.36146 0.0164-0.59786 0.0507-0.41038 0.0576-0.60198 1.3334-0.31407 2.0908 0.19282 0.50688 0.47315 0.71101 0.97624 0.71101 0.96212 0 1.464-1.2166 0.91362-2.214-0.25294-0.45839-0.48076-0.6349-0.97787-0.63839zm-7.7398 3.6935c-0.23661 0.0402-0.41746 0.26537-0.52195 0.68058-0.25882 1.0316 0.0294 1.822 1.1485 3.1277 1.179 1.3774 2.2144 1.968 3.9687 2.2647 2.0511 0.34693 3.1178 0.29314 4.6409-0.23301 2.9301-1.0125 4.6196-2.7716 4.4653-4.6493-0.0762-0.92457-0.18431-1.0748-0.83767-1.1501-0.62655-0.0722-0.78296 0.0415-0.93559 0.69074-0.4817 2.0476-3.1268 3.5571-5.8872 3.3574-2.0206-0.14608-3.3064-0.94384-4.499-2.7865-0.59888-0.92523-1.1478-1.3692-1.5419-1.3021zm-41.101 9.297c1.3953-0.0131 2.4994 0.0395 2.697 0.14183 0.26341 0.13628 0.95493 1.2437 1.5368 2.4606 0.99869 2.0886 1.0309 2.2364 0.57597 2.6481-0.63839 0.57755-0.96187 0.33324-1.1586-0.87991-0.18628-1.1484-0.62314-1.7817-1.2328-1.7817-0.37822 0-0.37933 0.0526-7e-3 0.48468 0.38165 0.4427 0.66682 1.6087 1.3409 5.465 0.13301 0.76091 0.44782 2.4473 0.69917 3.7475 0.25131 1.3002 0.41162 2.5914 0.35635 2.8693-0.0592 0.29838-0.60901 0.7044-1.3443 0.99134h-2e-3c-2.0165 0.78691-5.9953 0.70599-8.5776-0.17386-2.4361-0.8302-2.8618-1.2504-2.6295-2.5923 0.24445-1.4118 1.4823-5.1993 2.0857-6.382 0.56773-1.1128 1.6514-3.8692 1.6517-4.2018 0-0.11406-0.13171-0.20786-0.29216-0.20786-0.16047 0-0.6057 0.68637-0.98964 1.525-0.44115 0.96336-0.81859 1.4579-1.0234 1.3426-0.68456-0.38524-1.5689-1.318-1.5689-1.655 0-0.19379 0.61358-1.089 1.3629-1.9894l1.3612-1.6382 3.6884-0.1402c0.50705-0.0197 1.0042-0.0294 1.4693-0.0337zm23.24 0.40193c0.0415-7e-3 0.0984 3e-3 0.16897 0.0261 0.2085 0.0696 0.65645 0.8433 0.99644 1.7209 0.3399 0.87761 0.76981 1.7776 0.95417 1.9996 0.48351 0.5826 1.4191 0.3506 1.8239-0.45263 0.22289-0.4417 0.35048-0.53024 0.35296-0.24479 0 0.51825 1.0303 1.905 1.4085 1.905 0.14118 0 0.50456-0.24969 0.80891-0.55395l0.55391-0.5539v2.4403c0 3.3806-0.52502 4.9908-2.0671 6.3483-0.67443 0.59361-1.8688 1.288-2.6548 1.5419-1.3487 0.4356-3.8767 0.56478-5.1002 0.26013-1.276-0.31765-2.9164-1.5647-3.734-2.8389-1.9492-3.0376-2.0772-7.3629-0.28694-9.6888l0.53199-0.69072-0.10654 1.3054c-0.12877 1.5905 0.47161 2.5242 1.4507 2.258 0.34252-0.0931 0.62302-0.31046 0.62318-0.48299 1.01e-4 -0.17255 0.39541-1.1235 0.8799-2.1127 0.74672-1.5248 0.89727-1.6926 0.9845-1.1062 0.23073 1.5527 0.66796 2.4201 1.3832 2.746 0.63839 0.29087 0.79411 0.26896 1.1197-0.16536 0.36913-0.49259 0.33073-1.6224-0.10654-3.1024-0.10883-0.36908-0.11275-0.53762 0.0164-0.55899zm23.113 2.7494c0.27386-7e-3 0.54639-3e-3 0.81564 7e-3 0.71819 0.0327 1.4088 0.12679 2.0131 0.29379 1.2584 0.34765 3.0763 2.0803 3.3574 3.2003 0.13334 0.53212 0.0467 0.82695-0.32582 1.0994-0.75669 0.55335-0.91326 0.46794-1.1146-0.60459-0.19706-1.0507-0.90237-1.621-1.65-1.3342-0.36602 0.14053-0.42619 0.39027-0.28726 1.1754 0.23236 1.3095 0.69616 7.0105 0.70594 8.6485 7e-3 1.1964-0.0576 1.3088-0.86634 1.5909-1.9425 0.67624-5.5357 0.12614-5.9328-0.9086-0.0853-0.22256 0.10458-1.6516 0.4205-3.1767 0.68998-3.33 0.73885-5.4918 0.14347-6.3415-0.57511-0.82114-1.4415-0.78397-1.8341 0.0778-0.36266 0.79604-0.64989 0.87187-0.99137 0.26178-0.41211-0.73638-0.0376-2.0338 0.78868-2.7292 0.8933-0.75162 2.8413-1.217 4.7575-1.2598zm-21.615 2.4826c-0.60649 0-0.8729 0.17093-1.0706 0.69074-0.29543 0.77718 0.02611 1.9324 0.60459 2.1634 0.20001 0.08 0.40286 0.15524 0.45093 0.16732 0.0483 0.0131 0.32873-0.10751 0.62316-0.26503 0.33922-0.18137 0.53361-0.5787 0.53361-1.0842 0-1.2829-0.26505-1.672-1.1416-1.672zm-3.283 0.0196c-0.16144-1e-3 -0.32648 0.047-0.48639 0.14706-0.58253 0.36468-0.79084 1.9252-0.33108 2.4792 0.83293 1.0036 2.3122-0.11111 1.949-1.4692-0.19249-0.7195-0.6471-1.154-1.1315-1.1569zm-3.5026 3.609c-0.23366-7e-3 -0.43034 0.11732-0.62992 0.35802-0.24968 0.30099-0.23302 0.60266 0.0676 1.3139 0.52632 1.244 1.2923 1.8774 3.0246 2.496 2.9394 1.0497 6.5029 0.1974 7.4916-1.7918 0.94673-1.9044-0.28497-2.9685-1.5132-1.3072-0.84816 1.1472-2.6251 1.784-4.2846 1.5351-1.0488-0.15719-1.5372-0.4357-2.4909-1.4169-0.78149-0.80413-1.2756-1.1766-1.6652-1.1872zm-27.028 2.8305c0.0601 0.0605-0.10229 0.87289-0.36144 1.8053-0.42921 1.5436-0.93393 2.2557-0.93393 1.3173 0-0.49022 1.1516-3.2664 1.2954-3.1226zm23.861 1.5638c0.0987 0 1.2839 0.74701 2.6345 1.6601 1.3506 0.9131 2.5618 1.6601 2.692 1.6601 0.13006 0 0.2366 0.18726 0.2366 0.41544 0 0.22843-0.16929 0.41546-0.37494 0.41546-0.676 0-3.5832-0.17778-4.4467 0.45596-0.38887 0.3757-0.65707 0.72303-0.8275 1.0454-0.28269 0.0909-0.63008 0.0614-1.1974-0.0624-0.54139-0.11897-0.90179-0.33247-1.4744-0.94069 0.51779-0.11406 1.0105-0.34523 1.4406-0.72956 0.74278-0.66355 0.89807-1.0228 1.0082-2.3508 0.0718-0.86257 0.21079-1.5689 0.30916-1.5689zm15.052 1.1653c0.14281 0.0359 0.19151 0.2866 0.29216 0.78868 0.2072 1.0354 1.4932 2.376 2.5298 2.6362 0.0196 3e-3 0.0359 7e-3 0.0539 0.01-7e-3 7e-3 -0.0131 0.01-0.0164 0.0164-0.50253 0.58377-1.0628 0.86947-2.3323 1.1856-0.72104 0.17974-1.3982 0.26406-1.7664 0.24314-0.02609-0.21439-0.0575-0.40191-0.10295-0.50328-0.52756-1.1784-2.803-0.46884-4.4618-0.99304-1.224-0.38671-1.5638-0.95074-0.43743-0.95924 1.021-7e-3 4.4399-1.2328 5.3789-1.927 0.48119-0.35573 0.72002-0.5342 0.86304-0.49818zm-37.325 2.4724c0.20033 5.3e-4 0.41756 0.099 0.54376 0.26013 0.92072 1.1766 6.331 1.722 9.3966 0.94746 1.738-0.43913 1.9338-0.4425 2.339-0.0372 0.61159 0.61115 0.79662 5.1712 0.31407 7.728-0.33525 1.7766-0.43253 1.9512-1.2717 2.3018-0.49969 0.20884-1.6591 0.37999-2.5772 0.37999h-1.6685v-2.7258c0-3.0903-0.34744-4.4686-1.1248-4.4686-0.88152 0-1.1354 0.97444-1.0589 4.0549 0.0569 2.2816-0.0131 2.9591-0.32419 3.1564h-2e-3c-0.66721 0.42219-3.102 0.28986-4.1258-0.22453-0.52962-0.26602-1.2586-0.91972-1.6196-1.4524-0.59766-0.88216-0.64365-1.1778-0.51845-3.3202 0.17615-3.0182 0.94006-6.3488 1.5064-6.5661 0.0589-0.0229 0.12418-0.034 0.19085-0.0337zm28.249 2.1904c1.7749-0.0357 4.0787 0.27976 5.4413 0.53705 0.95509-0.10001 1.1792 0.7108 1.0876 1.4609a3.6879 5.8392 49.937 0 0-0.29053 0.72786c0.02611-0.0343 0.0795-0.0654 0.13334-0.0964-0.14739 0.38561-1.0541 0.78678-1.4997 0.52354-1.0376-0.24445-2.1928-0.29217-2.3981 0.52524-0.0902 0.3589-0.0294 1.6126 0.13334 2.7866 0.16308 1.1739 0.2974 2.1878 0.2974 2.2529 0 0.1477-1.407 0.0879-3.0433-0.13007l-1.2463-0.16537v-2.6295c0-2.6265 5.3e-4 -2.6275-0.69071-2.6008-0.38044 0.0164-1.4276 0.0889-1.6939 0.20426-0.38815 0.16863-0.64512-2.2245-0.64512-2.7798 0-0.91127 1.8688-0.41452 3.6901-0.57927 0.22778-0.0196 0.47093-0.0327 0.72452-0.0372zm22.392 0.0356c0.0565-0.01 0.12975-7e-3 0.22126 0.01 0.1219 0.0196 0.27876 0.0575 0.47965 0.11144 0.49459 0.13302 2.0918 0.23825 3.5499 0.23466l2.6514-7e-3 0.33949 2.7156c0.18628 1.4939 0.56453 3.6067 0.84097 4.695 0.50184 1.9763 0.50195 1.9788-0.0843 2.469-0.32289 0.26994-0.96213 0.61234-1.4187 0.75996-1.7867 0.57769-3.5388 0.5394-6.735-0.14347-1.8665-0.39886-2.0177-0.48253-1.8628-1.0319 0.34543-1.2244 1.8188-8.81 1.8188-9.3628 0-0.28824 0.0294-0.42462 0.19935-0.45093zm-23.902 11.082c0.16928 0.01 0.39119 0.0421 0.68567 0.0862 0.65234 0.0977 1.87 0.20293 2.7055 0.233 1.3277 0.0481 1.7152 0.20589 3.0771 1.2565 1.4871 1.1472 1.5356 1.226 1.0892 1.7192-0.2572 0.28432-1.0924 0.70209-1.856 0.92887-1.9997 0.59386-4.7502 0.5248-6.257-0.15884-0.6792-0.30817-1.2849-0.61115-1.3459-0.67215-0.0614-0.0611 0.14837-0.4405 0.46605-0.8444 0.31766-0.4039 0.65819-1.1633 0.7566-1.6871 0.13301-0.70967 0.17091-0.89007 0.67894-0.86131zm8.6349 9.15c0.26047 7e-3 0.50231 0.12026 0.66882 0.34788 0.28955 0.39799 0.29347 0.54708 0.0196 0.72114-0.19118 0.12058-0.75401 0.22222-1.2531 0.22451-0.81306 3e-3 -0.87901-0.052-0.62315-0.53029 0.2683-0.50138 0.75292-0.77668 1.1872-0.76334zm-20.232 0.19085c1.2601 0 0.0294 2.2569-1.601 2.9386-0.5022 0.20981-0.98339 0.38164-1.069 0.38164-0.2706 0-0.48061-0.81352-0.31929-1.2345 0.2219-0.57841 2.3824-2.0857 2.9893-2.0857zm-20.171 0.01c0.41848-0.0718 1.2119 0.24313 2.1447 0.98457 0.68483 0.54433 1.2323 1.104 1.216 1.243-0.0164 0.13889-0.0465 0.37638-0.0693 0.5286-0.11536 0.76971-2.3542-0.22679-3.1902-1.4203-0.56367-0.80481-0.51974-1.2641-0.10131-1.3359zm66.852 1.096h2e-3c0.69286 0 0.67921 1.0008-0.0196 1.3747-0.66522 0.35591-1.9556 0.3745-1.9556 0.0294 0-0.4051 1.4044-1.4034 1.9742-1.4034zm-38.015 0.0164c0.38151 5.2e-4 0.79335 0.13333 1.1365 0.39857 0.53162 0.41087 0.53162 0.41838 0 0.82921-1.1779 0.91022-2.9496 0.20425-2.089-0.83257 0.21929-0.26406 0.57094-0.39586 0.95252-0.39521zm22.642 0.80728c0.43743 0.0196 1.1281 0.24281 1.7024 0.59783 0.71345 0.44096 0.86218 0.6507 0.58599 0.82584-0.65818 0.41716-1.505 0.2572-2.1211-0.39858-0.33109-0.3522-0.6012-0.7249-0.6012-0.8292 0-0.14837 0.17157-0.20818 0.43397-0.19576z" fill="#070707" stroke-width=".2767"/>
 </g>
</svg>
